<?xml version="1.0" encoding="UTF-8"?>
<svg width="119px" height="120px" viewBox="0 0 119 120" version="1.1" xmlns="http://www.w3.org/2000/svg" xmlns:xlink="http://www.w3.org/1999/xlink">
    <!-- Generator: Sketch 51.3 (57544) - http://www.bohemiancoding.com/sketch -->
    <title>Icon</title>
    <desc>Created with Sketch.</desc>
    <defs></defs>
    <g id="Page-1" stroke="none" stroke-width="1" fill="none" fill-rule="evenodd">
        <g id="Web-Main" transform="translate(-822.000000, -1993.000000)" fill-rule="nonzero">
            <g id="Features-First-Part" transform="translate(52.000000, 1629.000000)">
                <g id="Feature-2" transform="translate(564.000000, 332.000000)">
                    <g id="Icon" transform="translate(207.000000, 33.000000)">
                        <g id="Group">
                            <g transform="translate(50.000000, 0.000000)">
                                <polygon id="Rectangle-path" stroke="#FFFFFF" stroke-width="2" transform="translate(28.556526, 25.503444) rotate(15.449586) translate(-28.556526, -25.503444) " points="4.42820163 6.4038804 52.6844555 6.4038804 52.6699472 31.09128 4.43420022 44.6030083"></polygon>
                                <path d="M13.4166065,5.95765766 L9.95956679,18.3732733 L22.4707581,21.8039039 L25.9277978,9.38828829 L13.4166065,5.95765766 Z M20.7216606,18.7408408 L13.0462094,16.6375375 L15.165704,9.02072072 L22.8411552,11.124024 L20.7216606,18.7408408 Z" id="Shape" fill="#FFFFFF"></path>
                                <rect id="Rectangle-path" fill="#FFFFFF" transform="translate(17.944905, 13.884583) rotate(15.449586) translate(-17.944905, -13.884583) " x="15.8459119" y="11.801625" width="4.19798541" height="4.16591608"></rect>
                                <path d="M39.1180505,13.0027027 L35.6610108,25.4183183 L48.1722022,28.8489489 L51.6292419,16.4333333 L39.1180505,13.0027027 Z M46.4231047,25.7858859 L38.7476534,23.6825826 L40.867148,16.0657658 L48.5425993,18.1690691 L46.4231047,25.7858859 Z" id="Shape" fill="#FFFFFF"></path>
                                <rect id="Rectangle-path" fill="#FFFFFF" transform="translate(43.669416, 20.932456) rotate(15.449586) translate(-43.669416, -20.932456) " x="41.5704235" y="18.8494983" width="4.19798541" height="4.16591608"></rect>
                                <path d="M6.2967509,31.4627628 L4.6805361,37.2672381 L4.61815556,37.4912716 L18.0604215,37.5780402 L18.8079422,34.8933934 L6.2967509,31.4627628 Z M7.24359929,37.4828139 L8.06642599,34.5258258 L15.7418773,36.6291291 L15.4810144,37.5575767 L7.24359929,37.4828139 Z" id="Shape" fill="#FFFFFF"></path>
                                <polygon id="Rectangle-path" fill="#FFFFFF" transform="translate(10.396623, 37.648210) rotate(15.449586) translate(-10.396623, -37.648210) " points="9.20120703 37.1482008 11.5920386 37.1482008 9.20120703 37.8239819"></polygon>
                                <rect id="Rectangle-path" fill="#FFFFFF" transform="translate(28.319773, 16.715400) rotate(15.449586) translate(-28.319773, -16.715400) " x="27.064493" y="10.2725245" width="2.5105599" height="12.8857502"></rect>
                                <rect id="Rectangle-path" fill="#FFFFFF" transform="translate(31.177274, 26.287139) rotate(15.449586) translate(-31.177274, -26.287139) " x="29.9219936" y="19.9055271" width="2.5105599" height="12.7632233"></rect>
                                <rect id="Rectangle-path" fill="#FFFFFF" transform="translate(34.431159, 14.638744) rotate(15.449586) translate(-34.431159, -14.638744) " x="33.1758787" y="11.8818877" width="2.5105599" height="5.51371247"></rect>
                                <polygon id="Rectangle-path" fill="#FFFFFF" transform="translate(23.719447, 33.219174) rotate(15.449586) translate(-23.719447, -33.219174) " points="22.4641666 28.423037 24.9747265 28.423037 24.9747265 37.3053087 22.4641666 38.0153102"></polygon>
                                <polygon id="Rectangle-path" fill="#FFFFFF" transform="translate(28.136568, 37.263351) rotate(15.449586) translate(-28.136568, -37.263351) " points="26.881288 36.6341376 29.3918479 36.6341376 29.3918479 37.2589953 26.881288 37.8925646"></polygon>
                                <rect id="Rectangle-path" fill="#FFFFFF" transform="translate(31.449243, 34.276907) rotate(105.449586) translate(-31.449243, -34.276907) " x="30.1939628" y="27.8340319" width="2.5105599" height="12.8857502"></rect>
                                <rect id="Rectangle-path" fill="#FFFFFF" transform="translate(40.683895, 31.611197) rotate(105.449586) translate(-40.683895, -31.611197) " x="39.4286151" y="25.1683216" width="2.5105599" height="12.8857502"></rect>
                                <rect id="Rectangle-path" fill="#FFFFFF" transform="translate(13.625051, 29.381228) rotate(105.449586) translate(-13.625051, -29.381228) " x="12.3697706" y="22.9383525" width="2.5105599" height="12.8857502"></rect>
                                <rect id="Rectangle-path" fill="#FFFFFF" transform="translate(26.945587, 27.839711) rotate(105.449586) translate(-26.945587, -27.839711) " x="25.6903074" y="24.919485" width="2.5105599" height="5.84045098"></rect>
                                <rect id="Rectangle-path" fill="#FFFFFF" transform="translate(17.021081, 25.115665) rotate(105.449586) translate(-17.021081, -25.115665) " x="15.7658008" y="16.5592003" width="2.5105599" height="17.1129298"></rect>
                            </g>
                            <g transform="translate(16.000000, 15.000000)">
                                <path d="M37.5765827,22.3543071 C37.853973,21.0990165 38,19.7963405 38,18.4605263 C38,8.26505916 29.4934102,0 19,0 C8.50658975,0 0,8.26505916 0,18.4605263 C0,19.7894268 0.144519408,21.0855314 0.41912085,22.3348127 C0.537718843,22.8743665 0.841478776,22.7160125 1.24062927,22.7369706 C1.80027615,22.7663558 2.60980504,22.6940666 3.50475741,22.7369706 C6.87577912,22.8985771 12.5144358,22.7246034 18.5681802,22.7369706 C24.1336378,22.7483403 29.5479583,22.713386 33.2728131,22.7369706 C34.5810189,22.7452538 35.7071771,22.7286157 36.4977801,22.7369706 C37.0400453,22.7427011 37.4369206,22.9863283 37.5765827,22.3543071 Z" id="Oval" stroke="#FFFFFF" stroke-width="2"></path>
                                <path d="M31.5406541,22.4299956 C31.9594214,21.1802163 32.1857923,19.8460566 32.1857923,18.4605263 C32.1857923,11.3849835 26.282312,5.64912281 19,5.64912281 C11.717688,5.64912281 5.81420765,11.3849835 5.81420765,18.4605263 C5.81420765,19.8476087 6.04108603,21.1832054 6.46075395,22.4341954 C6.60752732,22.8717128 6.96983461,22.794821 7.44286309,22.7838627 C8.43038261,22.7609857 9.98570392,22.3516626 11.6678567,22.7838627 C11.9372468,22.8530779 12.2220443,22.7846811 12.5185163,22.7838627 C13.428714,22.7813503 14.4496979,22.6232624 15.4787664,22.6152087 C18.663458,22.5902846 22.2372462,22.55002 25.0783331,22.6152087 C27.3469715,22.6672625 29.1329268,22.5870019 30.2454587,22.6152087 C30.931732,22.6326082 31.3111798,23.1148442 31.5406541,22.4299956 Z" id="Oval" stroke="#FFFFFF" stroke-width="2"></path>
                                <g transform="translate(10.382514, 9.885965)" fill="#FFFFFF">
                                    <path d="M5.5951933,12.5480807 L2.67868852,3.93421053 L7.12240437,2.52192982 C7.86994536,2.27982456 8.53442623,2.13859649 9.17814208,2.09824561 C9.8010929,2.05789474 10.3617486,2.09824561 10.8601093,2.23947368 C11.3584699,2.38070175 11.7945355,2.64298246 12.147541,3.00614035 C12.5005464,3.36929825 12.7704918,3.83333333 12.9781421,4.39824561 C13.0819672,4.68070175 13.1234973,4.96315789 13.1442623,5.24561404 C13.1650273,5.52807018 13.1234973,5.81052632 13.0612022,6.07280702 C12.9989071,6.35526316 12.8743169,6.61754386 12.7081967,6.85964912 C12.5420765,7.12192982 12.3344262,7.34385965 12.0437158,7.56578947 C12.4382514,7.54561404 12.8120219,7.56578947 13.1442623,7.66666667 C13.4765027,7.76754386 13.7672131,7.90877193 14.0163934,8.09035088 C14.2655738,8.27192982 14.4939891,8.49385965 14.6601093,8.75614035 C14.8262295,9.01842105 14.9715847,9.30087719 15.0754098,9.60350877 C15.4700301,10.734585 15.3959381,11.7199319 14.8887638,12.5595496 C14.862185,12.6035503 14.8344169,12.6471507 14.8054645,12.6903509 C14.6310873,12.9505408 13.9683655,12.8055979 12.7081967,12.8124872 C11.680867,12.8181035 9.30986587,12.729968 5.5951933,12.5480807 Z M7.03934426,8.27192982 L8.9704918,7.64649123 C9.63497268,7.4245614 10.0918033,7.12192982 10.3202186,6.75877193 C10.5486339,6.39561404 10.5901639,5.97192982 10.4240437,5.4877193 C10.2371585,4.92280702 9.92568306,4.57982456 9.51038251,4.43859649 C9.09508197,4.29736842 8.5136612,4.3377193 7.80765027,4.57982456 L5.98032787,5.16491228 L7.03934426,8.27192982 Z M7.66229508,10.0675439 L8.4854236,12.5433877 L11.0262295,12.6903509 C11.1657696,12.6479827 11.2979839,12.5984968 11.4197956,12.5433877 C11.5880135,12.4672839 11.7363929,12.3804566 11.8568306,12.2868421 C12.0644809,12.1254386 12.2306011,11.9438596 12.3551913,11.7622807 C12.4590164,11.5605263 12.5420765,11.3587719 12.5420765,11.1368421 C12.5628415,10.9149123 12.5213115,10.6929825 12.4382514,10.4508772 C12.3551913,10.1885965 12.2306011,9.96666667 12.0852459,9.76491228 C11.9398907,9.58333333 11.7737705,9.42192982 11.5661202,9.32105263 C11.3584699,9.22017544 11.1300546,9.15964912 10.8601093,9.15964912 C10.5901639,9.15964912 10.2994536,9.2 9.96721311,9.32105263 L7.66229508,10.0675439 Z" id="Shape"></path>
                                    <rect id="Rectangle-path" transform="translate(1.927014, 5.295614) rotate(-18.210275) translate(-1.927014, -5.295614) " x="0.452722194" y="4.21624606" width="2.94858414" height="2.15873551"></rect>
                                    <rect id="Rectangle-path" transform="translate(4.041311, 2.827443) rotate(71.789725) translate(-4.041311, -2.827443) " x="2.56701935" y="1.74807571" width="2.94858414" height="2.15873551"></rect>
                                    <rect id="Rectangle-path" transform="translate(7.206223, 1.833494) rotate(71.789725) translate(-7.206223, -1.833494) " x="5.73193137" y="0.754126674" width="2.94858414" height="2.15873551"></rect>
                                </g>
                            </g>
                            <path d="M104.082147,118 L10.9178526,118 C4.88920915,118 0,113.151515 0,107.173087 L0,48.8269132 C0,42.8484848 4.88920915,38 10.9178526,38 L104.082147,38 C110.110791,38 115,42.8484848 115,48.8269132 L115,107.173087 C115,113.151515 110.110791,118 104.082147,118 Z" id="Shape" stroke="#FFFFFF" stroke-width="2"></path>
                            <path d="M113.563693,89 L70.2037487,89 C62.914613,89 57,83.1766562 57,76 C57,68.8233438 62.914613,63 70.2037487,63 L113.563693,63 C115.458868,63 117,64.5173502 117,66.3832808 L117,85.6167192 C117,87.4826498 115.458868,89 113.563693,89 Z" id="Shape" stroke="#FFFFFF" stroke-width="2"></path>
                            <circle id="Oval" stroke="#FFFFFF" stroke-width="2" cx="69" cy="75" r="5"></circle>
                            <g transform="translate(20.000000, 60.000000)" fill="#FFFFFF">
                                <path d="M5.49593496,31.6860465 L5.49593496,5.25290698 L15.1138211,5.25290698 C16.7203252,5.25290698 18.1365854,5.39534884 19.3837398,5.68023256 C20.6308943,5.96511628 21.7089431,6.4127907 22.5756098,7.02325581 C23.4422764,7.61337209 24.1186992,8.36627907 24.5837398,9.28197674 C25.0487805,10.1976744 25.2813008,11.255814 25.2813008,12.497093 C25.2813008,13.1075581 25.196748,13.6773256 25.0487805,14.247093 C24.900813,14.7965116 24.6471545,15.3255814 24.3300813,15.8139535 C24.0130081,16.3023256 23.6113821,16.7296512 23.104065,17.1366279 C22.6178862,17.5232558 22.0260163,17.8488372 21.3495935,18.1133721 C22.1528455,18.3168605 22.8504065,18.6017442 23.4211382,18.9883721 C23.9918699,19.375 24.4569106,19.8430233 24.8373984,20.3517442 C25.2178862,20.880814 25.4715447,21.4302326 25.6406504,22.0406977 C25.8097561,22.6511628 25.8943089,23.2819767 25.8943089,23.9127907 C25.8943089,26.4767442 25.0276423,28.4098837 23.3154472,29.7122093 C21.603252,31.0145349 19.1512195,31.6656977 16.001626,31.6656977 L5.49593496,31.6656977 L5.49593496,31.6860465 Z M11.1609756,16.3226744 L15.3463415,16.3226744 C16.7837398,16.3023256 17.8617886,15.997093 18.5804878,15.4476744 C19.2780488,14.877907 19.6373984,14.0843023 19.6373984,13.0465116 C19.6373984,11.8459302 19.2780488,10.9912791 18.5593496,10.4622093 C17.8406504,9.93313953 16.699187,9.66860465 15.1349593,9.66860465 L11.1821138,9.66860465 L11.1821138,16.3226744 L11.1609756,16.3226744 Z M11.1609756,20.1686047 L11.1609756,27.3110465 L16.001626,27.3110465 C16.7203252,27.3110465 17.3544715,27.2296512 17.8829268,27.0465116 C18.4113821,26.8633721 18.8552846,26.619186 19.1934959,26.3139535 C19.5528455,26.0087209 19.8065041,25.6424419 19.9756098,25.2151163 C20.1447154,24.7877907 20.2292683,24.3401163 20.2292683,23.8517442 C20.2292683,23.2819767 20.1447154,22.7732558 19.996748,22.3255814 C19.8487805,21.877907 19.6162602,21.4912791 19.299187,21.1656977 C18.9821138,20.8401163 18.5593496,20.5959302 18.0520325,20.4331395 C17.5447154,20.2703488 16.9105691,20.1889535 16.2130081,20.1889535 L11.1609756,20.1889535 L11.1609756,20.1686047 Z" id="Shape"></path>
                                <rect id="Rectangle-path" x="0.105691057" y="5.25290698" width="6.04552846" height="4.41569767"></rect>
                                <rect id="Rectangle-path" transform="translate(8.863400, 3.969892) rotate(90.000000) translate(-8.863400, -3.969892) " x="5.84063577" y="1.7620436" width="6.04552846" height="4.41569767"></rect>
                                <rect id="Rectangle-path" transform="translate(15.697659, 3.983892) rotate(90.000000) translate(-15.697659, -3.983892) " x="12.6748943" y="1.7760436" width="6.04552846" height="4.41569767"></rect>
                                <rect id="Rectangle-path" transform="translate(8.867860, 32.950930) rotate(90.000000) translate(-8.867860, -32.950930) " x="5.84509593" y="30.7430814" width="6.04552846" height="4.41569767"></rect>
                                <rect id="Rectangle-path" transform="translate(15.702119, 32.964930) rotate(90.000000) translate(-15.702119, -32.964930) " x="12.6793545" y="30.7570814" width="6.04552846" height="4.41569767"></rect>
                                <rect id="Rectangle-path" x="0.105691057" y="27.3110465" width="6.04552846" height="4.41569767"></rect>
                            </g>
                        </g>
                    </g>
                </g>
            </g>
        </g>
    </g>
</svg>