<svg width="101px" height="100px" viewBox="0 0 101 100" version="1.1" xmlns="http://www.w3.org/2000/svg" xmlns:xlink="http://www.w3.org/1999/xlink">
    <!-- Generator: Sketch 51.3 (57544) - http://www.bohemiancoding.com/sketch -->
    <title>Logo</title>
    <desc>Created with Sketch.</desc>
    <defs></defs>
    <g id="Page-1" stroke="none" stroke-width="1" fill="none" fill-rule="evenodd">
        <g id="Web-Main" transform="translate(-940.000000, -1149.000000)" fill-rule="nonzero">
            <g id="Coins-Info" transform="translate(110.000000, 1113.000000)">
                <g id="ETH" transform="translate(780.000000, 0.000000)">
                    <g id="Logo" transform="translate(50.000000, 36.000000)">
                        <ellipse id="Oval" fill="#6F7CBA" cx="50.135" cy="49.72" rx="50.135" ry="49.72"></ellipse>
                        <path d="M31.7417219,55.1892 C31.4283781,54.723075 31.5537156,54.5677 32.0237313,54.8163 L49.2263031,64.418475 C49.6963188,64.667075 50.4796781,64.667075 50.9810281,64.418475 L68.4656094,54.847375 C68.9669594,54.598775 69.0922969,54.75415 68.7789531,55.1892 L50.7616875,80.48425 C50.4483438,80.950375 49.884325,80.950375 49.5709813,80.48425 L31.7103875,55.220275 L31.7417219,55.1892 Z M31.8670594,48.880975 C31.6315021,48.7686339 31.4537448,48.564101 31.3764591,48.3164755 C31.2991734,48.0688501 31.3293383,47.8004931 31.4597125,47.575825 L49.4456438,18.986825 C49.7589875,18.5207 50.2290031,18.5207 50.5110125,18.986825 L68.5909469,47.54475 C68.9042906,47.9798 68.7476188,48.570225 68.2149344,48.818825 L50.9810281,57.457675 C50.3833027,57.7248896 49.6986911,57.7248896 49.1009656,57.457675 L31.8670594,48.880975 Z" id="Shape" fill="#FFFFFF"></path>
                    </g>
                </g>
            </g>
        </g>
    </g>
</svg>