<?xml version="1.0" encoding="UTF-8"?>
<svg width="111px" height="94px" viewBox="0 0 111 94" version="1.1" xmlns="http://www.w3.org/2000/svg" xmlns:xlink="http://www.w3.org/1999/xlink">
    <!-- Generator: Sketch 51.3 (57544) - http://www.bohemiancoding.com/sketch -->
    <title>Icon</title>
    <desc>Created with Sketch.</desc>
    <defs></defs>
    <g id="Page-1" stroke="none" stroke-width="1" fill="none" fill-rule="evenodd">
        <g id="Dark-Blue-Full" transform="translate(-58.000000, -1337.000000)" fill-rule="nonzero">
            <g id="API-Left-Tri" transform="translate(-1941.000000, 488.000000)">
                <g id="Icon" transform="translate(2000.000000, 850.000000)">
                    <g id="Group">
                        <g transform="translate(36.506834, 0.000000)">
                            <path d="M33.1564236,43.8534934 L3.11335341,43.8534934 C1.43814802,43.8534934 0.0632152977,42.5435245 0.0632152977,40.9136795 L0.0632152977,3.07690367 C0.0632152977,1.46229085 1.4223442,0.137089768 3.11335341,0.137089768 L33.1564236,0.137089768 C34.831629,0.137089768 36.2065617,1.44705866 36.2065617,3.07690367 L36.2065617,40.9289117 C36.1907579,42.5435245 34.831629,43.8534934 33.1564236,43.8534934 Z" id="Shape" stroke="#FFFFFF" stroke-width="2"></path>
                            <polygon id="Shape" fill="#FFFFFF" points="22.8365263 38.8116364 18.6485128 34.7598722 20.5607756 32.9015442 22.8365263 35.1102127 28.446884 29.702783 30.3749505 31.5458787"></polygon>
                            <rect id="Rectangle-path" fill="#FFFFFF" x="13.4648584" y="6.3213615" width="16.7046424" height="3.32061881"></rect>
                            <rect id="Rectangle-path" fill="#FFFFFF" x="6.0844724" y="13.4804938" width="24.0850284" height="3.32061881"></rect>
                            <rect id="Rectangle-path" fill="#FFFFFF" x="6.0844724" y="20.6396261" width="24.0850284" height="3.32061881"></rect>
                        </g>
                        <path d="M88.3275747,50.3271769 C88.3275747,48.5145455 89.8447418,47.0522547 91.7253969,47.0522547 C93.606052,47.0522547 95.1232192,48.5145455 95.1232192,50.3271769 C95.1232192,52.1398082 93.606052,53.6020991 91.7253969,53.6020991 C89.8447418,53.5868669 88.3275747,52.1245761 88.3275747,50.3271769 Z M88.3275747,38.5374569 C88.3275747,36.7248255 89.8447418,35.2625346 91.7253969,35.2625346 C93.606052,35.2625346 95.1232192,36.7248255 95.1232192,38.5374569 C95.1232192,40.3500882 93.606052,41.8123791 91.7253969,41.8123791 C89.8447418,41.8123791 88.3275747,40.3500882 88.3275747,38.5374569 Z M88.3275747,26.7477369 C88.3275747,24.9351055 89.8447418,23.4728146 91.7253969,23.4728146 C93.606052,23.4728146 95.1232192,24.9351055 95.1232192,26.7477369 C95.1232192,28.5603682 93.606052,30.0226591 91.7253969,30.0226591 C89.8447418,30.0226591 88.3275747,28.5603682 88.3275747,26.7477369 Z" id="Shape" fill="#FFFFFF"></path>
                        <path d="M14.1602267,50.3271769 C14.1602267,48.5145455 15.6773938,47.0522547 17.5580489,47.0522547 C19.438704,47.0522547 20.9558712,48.5145455 20.9558712,50.3271769 C20.9558712,52.1398082 19.438704,53.6020991 17.5580489,53.6020991 C15.6773938,53.5868669 14.1602267,52.1245761 14.1602267,50.3271769 Z M14.1602267,38.5374569 C14.1602267,36.7248255 15.6773938,35.2625346 17.5580489,35.2625346 C19.438704,35.2625346 20.9558712,36.7248255 20.9558712,38.5374569 C20.9558712,40.3500882 19.438704,41.8123791 17.5580489,41.8123791 C15.6773938,41.8123791 14.1602267,40.3500882 14.1602267,38.5374569 Z M14.1602267,26.7477369 C14.1602267,24.9351055 15.6773938,23.4728146 17.5580489,23.4728146 C19.438704,23.4728146 20.9558712,24.9351055 20.9558712,26.7477369 C20.9558712,28.5603682 19.438704,30.0226591 17.5580489,30.0226591 C15.6773938,30.0226591 14.1602267,28.5603682 14.1602267,26.7477369 Z" id="Shape" fill="#FFFFFF"></path>
                        <g transform="translate(0.000000, 58.643956)">
                            <ellipse id="Oval" stroke="#FFFFFF" stroke-width="2" cx="17.0049151" cy="16.4964687" rx="16.9733074" ry="16.3593789"></ellipse>
                            <g transform="translate(2.370574, 6.092879)" fill="#FFFFFF" id="Shape">
                                <g transform="translate(5.215262, 0.000000)">
                                    <polygon points="2.05449717 4.28024719 1.18528683 4.28024719 1.18528683 1.05102155 0.14223442 1.35566548 0.14223442 0.670216641 1.95967423 0.0456965892 2.05449717 0.0456965892"></polygon>
                                    <path d="M7.96512751,2.5437768 C7.96512751,2.86365292 7.93351986,3.13783246 7.85450074,3.3663154 C7.77548161,3.59479835 7.68065867,3.77758471 7.55422807,3.92990667 C7.42779748,4.08222863 7.26975923,4.18885401 7.08011334,4.24978279 C6.89046745,4.32594378 6.70082155,4.35640817 6.47956801,4.35640817 C6.25831447,4.35640817 6.05286475,4.32594378 5.87902268,4.24978279 C5.70518061,4.17362181 5.54714237,4.06699644 5.40490795,3.92990667 C5.27847736,3.77758471 5.16785058,3.59479835 5.10463529,3.3663154 C5.02561616,3.13783246 4.99400852,2.86365292 4.99400852,2.5437768 L4.99400852,1.81263137 C4.99400852,1.49275525 5.02561616,1.21857571 5.10463529,0.990092765 C5.18365441,0.76160982 5.27847736,0.578823463 5.40490795,0.426501499 C5.53133855,0.274179535 5.68937679,0.16755416 5.87902268,0.106625375 C6.05286475,0.0304643928 6.25831447,0 6.47956801,0 C6.70082155,0 6.90627127,0.0304643928 7.08011334,0.106625375 C7.25395541,0.182786357 7.41199365,0.289411731 7.55422807,0.426501499 C7.68065867,0.578823463 7.79128544,0.76160982 7.85450074,0.990092765 C7.93351986,1.21857571 7.96512751,1.49275525 7.96512751,1.81263137 L7.96512751,2.5437768 Z M7.09591716,1.6907738 C7.09591716,1.50798744 7.08011334,1.34043328 7.04850569,1.21857571 C7.01689804,1.09671814 6.98529039,0.990092765 6.92207509,0.913931784 C6.87466362,0.837770802 6.81144832,0.776842016 6.7324292,0.746377623 C6.65341008,0.71591323 6.57439096,0.700681034 6.47956801,0.700681034 C6.38474506,0.700681034 6.28992212,0.71591323 6.22670682,0.746377623 C6.1476877,0.776842016 6.0844724,0.837770802 6.03706093,0.913931784 C5.98964945,0.990092765 5.94223798,1.09671814 5.91063033,1.21857571 C5.87902268,1.34043328 5.86321886,1.50798744 5.86321886,1.6907738 L5.86321886,2.65040217 C5.86321886,2.83318853 5.87902268,3.00074269 5.91063033,3.12260026 C5.94223798,3.25969003 5.97384563,3.35108321 6.03706093,3.44247638 C6.0844724,3.51863737 6.1476877,3.57956615 6.22670682,3.61003054 C6.30572594,3.64049494 6.38474506,3.65572713 6.47956801,3.65572713 C6.57439096,3.65572713 6.6692139,3.64049494 6.7324292,3.61003054 C6.81144832,3.57956615 6.87466362,3.51863737 6.92207509,3.44247638 C6.96948657,3.3663154 7.01689804,3.25969003 7.03270187,3.12260026 C7.06430951,2.98551049 7.08011334,2.83318853 7.08011334,2.65040217 L7.08011334,1.6907738 L7.09591716,1.6907738 Z"></path>
                                    <polygon points="12.2005525 4.28024719 11.3313421 4.28024719 11.3313421 1.05102155 10.2882897 1.35566548 10.2882897 0.670216641 12.1057295 0.0456965892 12.2005525 0.0456965892"></polygon>
                                    <path d="M18.1111828,2.5437768 C18.1111828,2.86365292 18.0795751,3.13783246 18.000556,3.3663154 C17.9215369,3.59479835 17.8267139,3.77758471 17.7002833,3.92990667 C17.5738528,4.08222863 17.4158145,4.18885401 17.2261686,4.24978279 C17.0365227,4.32594378 16.8468768,4.35640817 16.6256233,4.35640817 C16.4043697,4.35640817 16.19892,4.32594378 16.025078,4.24978279 C15.8512359,4.17362181 15.6931976,4.06699644 15.5509632,3.92990667 C15.4245326,3.77758471 15.3139059,3.59479835 15.2506906,3.3663154 C15.1716714,3.13783246 15.1400638,2.86365292 15.1400638,2.5437768 L15.1400638,1.81263137 C15.1400638,1.49275525 15.1716714,1.21857571 15.2506906,0.990092765 C15.3297097,0.76160982 15.4245326,0.578823463 15.5509632,0.426501499 C15.6773938,0.274179535 15.8354321,0.16755416 16.025078,0.106625375 C16.19892,0.0304643928 16.4043697,0 16.6256233,0 C16.8468768,0 17.0523265,0.0304643928 17.2261686,0.106625375 C17.4000107,0.182786357 17.5580489,0.289411731 17.7002833,0.426501499 C17.8267139,0.578823463 17.9373407,0.76160982 18.000556,0.990092765 C18.0795751,1.21857571 18.1111828,1.49275525 18.1111828,1.81263137 L18.1111828,2.5437768 Z M17.2419724,1.6907738 C17.2419724,1.50798744 17.2261686,1.34043328 17.194561,1.21857571 C17.1629533,1.09671814 17.1313457,0.990092765 17.0681304,0.913931784 C17.0207189,0.837770802 16.9575036,0.776842016 16.8784845,0.746377623 C16.7994654,0.71591323 16.7204462,0.700681034 16.6256233,0.700681034 C16.5308003,0.700681034 16.4359774,0.71591323 16.3727621,0.746377623 C16.293743,0.776842016 16.2305277,0.837770802 16.1831162,0.913931784 C16.1357047,0.990092765 16.0882933,1.09671814 16.0566856,1.21857571 C16.025078,1.34043328 16.0092741,1.50798744 16.0092741,1.6907738 L16.0092741,2.65040217 C16.0092741,2.83318853 16.025078,3.00074269 16.0566856,3.12260026 C16.0882933,3.25969003 16.1199009,3.35108321 16.1831162,3.44247638 C16.2305277,3.51863737 16.293743,3.57956615 16.3727621,3.61003054 C16.4517812,3.64049494 16.5308003,3.65572713 16.6256233,3.65572713 C16.7204462,3.65572713 16.8152692,3.64049494 16.8784845,3.61003054 C16.9575036,3.57956615 17.0207189,3.51863737 17.0681304,3.44247638 C17.1155418,3.3663154 17.1629533,3.25969003 17.1787571,3.12260026 C17.2103648,2.98551049 17.2261686,2.83318853 17.2261686,2.65040217 L17.2261686,1.6907738 L17.2419724,1.6907738 Z"></path>
                                </g>
                                <g transform="translate(5.215262, 12.490401)">
                                    <polygon points="2.05449717 4.41733695 1.18528683 4.41733695 1.18528683 1.18811132 0.14223442 1.49275525 0.14223442 0.807306409 1.95967423 0.182786357 2.05449717 0.182786357"></polygon>
                                    <path d="M7.96512751,2.66563437 C7.96512751,2.98551049 7.93351986,3.25969003 7.85450074,3.48817297 C7.77548161,3.71665592 7.68065867,3.89944228 7.55422807,4.05176424 C7.42779748,4.2040862 7.26975923,4.31071158 7.08011334,4.37164036 C6.89046745,4.44780135 6.70082155,4.47826574 6.47956801,4.47826574 C6.25831447,4.47826574 6.05286475,4.44780135 5.87902268,4.37164036 C5.70518061,4.29547938 5.54714237,4.18885401 5.40490795,4.05176424 C5.27847736,3.89944228 5.16785058,3.71665592 5.10463529,3.48817297 C5.02561616,3.25969003 4.99400852,2.98551049 4.99400852,2.66563437 L4.99400852,1.93448894 C4.99400852,1.61461282 5.02561616,1.34043328 5.10463529,1.11195034 C5.18365441,0.883467391 5.27847736,0.700681034 5.40490795,0.54835907 C5.53133855,0.396037106 5.68937679,0.289411731 5.87902268,0.228482946 C6.05286475,0.152321964 6.25831447,0.121857571 6.47956801,0.121857571 C6.70082155,0.121857571 6.90627127,0.152321964 7.08011334,0.228482946 C7.25395541,0.304643928 7.41199365,0.411269303 7.55422807,0.54835907 C7.68065867,0.700681034 7.79128544,0.883467391 7.85450074,1.11195034 C7.93351986,1.34043328 7.96512751,1.61461282 7.96512751,1.93448894 L7.96512751,2.66563437 Z M7.09591716,1.81263137 C7.09591716,1.62984501 7.08011334,1.46229085 7.04850569,1.34043328 C7.01689804,1.21857571 6.98529039,1.11195034 6.92207509,1.03578935 C6.87466362,0.959628373 6.81144832,0.898699587 6.7324292,0.868235194 C6.65341008,0.837770802 6.57439096,0.822538605 6.47956801,0.822538605 C6.38474506,0.822538605 6.28992212,0.837770802 6.22670682,0.868235194 C6.1476877,0.898699587 6.0844724,0.959628373 6.03706093,1.03578935 C5.98964945,1.11195034 5.94223798,1.21857571 5.91063033,1.34043328 C5.87902268,1.46229085 5.86321886,1.62984501 5.86321886,1.81263137 L5.86321886,2.77225974 C5.86321886,2.9550461 5.87902268,3.12260026 5.91063033,3.24445783 C5.94223798,3.3815476 5.97384563,3.47294078 6.03706093,3.56433396 C6.0844724,3.64049494 6.1476877,3.70142372 6.22670682,3.73188812 C6.30572594,3.76235251 6.38474506,3.77758471 6.47956801,3.77758471 C6.57439096,3.77758471 6.6692139,3.76235251 6.7324292,3.73188812 C6.81144832,3.70142372 6.87466362,3.64049494 6.92207509,3.56433396 C6.96948657,3.48817297 7.01689804,3.3815476 7.03270187,3.24445783 C7.06430951,3.10736806 7.08011334,2.9550461 7.08011334,2.77225974 L7.08011334,1.81263137 L7.09591716,1.81263137 Z"></path>
                                    <polygon points="12.2005525 4.41733695 11.3313421 4.41733695 11.3313421 1.18811132 10.2882897 1.49275525 10.2882897 0.807306409 12.1057295 0.182786357 12.2005525 0.182786357"></polygon>
                                    <path d="M18.1111828,2.66563437 C18.1111828,2.98551049 18.0795751,3.25969003 18.000556,3.48817297 C17.9215369,3.71665592 17.8267139,3.89944228 17.7002833,4.05176424 C17.5738528,4.2040862 17.4158145,4.31071158 17.2261686,4.37164036 C17.0365227,4.44780135 16.8468768,4.47826574 16.6256233,4.47826574 C16.4043697,4.47826574 16.19892,4.44780135 16.025078,4.37164036 C15.8512359,4.29547938 15.6931976,4.18885401 15.5509632,4.05176424 C15.4245326,3.89944228 15.3139059,3.71665592 15.2506906,3.48817297 C15.1716714,3.25969003 15.1400638,2.98551049 15.1400638,2.66563437 L15.1400638,1.93448894 C15.1400638,1.61461282 15.1716714,1.34043328 15.2506906,1.11195034 C15.3297097,0.883467391 15.4245326,0.700681034 15.5509632,0.54835907 C15.6773938,0.396037106 15.8354321,0.289411731 16.025078,0.228482946 C16.19892,0.152321964 16.4043697,0.121857571 16.6256233,0.121857571 C16.8468768,0.121857571 17.0523265,0.152321964 17.2261686,0.228482946 C17.4000107,0.304643928 17.5580489,0.411269303 17.7002833,0.54835907 C17.8267139,0.700681034 17.9373407,0.883467391 18.000556,1.11195034 C18.0795751,1.34043328 18.1111828,1.61461282 18.1111828,1.93448894 L18.1111828,2.66563437 Z M17.2419724,1.81263137 C17.2419724,1.62984501 17.2261686,1.46229085 17.194561,1.34043328 C17.1629533,1.21857571 17.1313457,1.11195034 17.0681304,1.03578935 C17.0207189,0.959628373 16.9575036,0.898699587 16.8784845,0.868235194 C16.7994654,0.837770802 16.7204462,0.822538605 16.6256233,0.822538605 C16.5308003,0.822538605 16.4359774,0.837770802 16.3727621,0.868235194 C16.293743,0.898699587 16.2305277,0.959628373 16.1831162,1.03578935 C16.1357047,1.11195034 16.0882933,1.21857571 16.0566856,1.34043328 C16.025078,1.46229085 16.0092741,1.62984501 16.0092741,1.81263137 L16.0092741,2.77225974 C16.0092741,2.9550461 16.025078,3.12260026 16.0566856,3.24445783 C16.0882933,3.3815476 16.1199009,3.47294078 16.1831162,3.56433396 C16.2305277,3.64049494 16.293743,3.70142372 16.3727621,3.73188812 C16.4517812,3.76235251 16.5308003,3.77758471 16.6256233,3.77758471 C16.7204462,3.77758471 16.8152692,3.76235251 16.8784845,3.73188812 C16.9575036,3.70142372 17.0207189,3.64049494 17.0681304,3.56433396 C17.1155418,3.48817297 17.1629533,3.3815476 17.1787571,3.24445783 C17.2103648,3.10736806 17.2261686,2.9550461 17.2261686,2.77225974 L17.2261686,1.81263137 L17.2419724,1.81263137 Z"></path>
                                    <polygon points="22.3624116 4.41733695 21.4932012 4.41733695 21.4932012 1.18811132 20.4501488 1.49275525 20.4501488 0.807306409 22.2675886 0.182786357 22.3624116 0.182786357"></polygon>
                                </g>
                                <g transform="translate(0.000000, 6.397522)">
                                    <polygon points="1.89645893 4.41733695 1.03443214 4.41733695 1.03443214 1.16487948 0 1.47171509 0 0.781334966 1.80241964 0.152321964 1.89645893 0.152321964"></polygon>
                                    <polygon points="12.0109066 4.41733695 11.1488798 4.41733695 11.1488798 1.16487948 10.1144476 1.47171509 10.1144476 0.781334966 11.9168673 0.152321964 12.0109066 0.152321964"></polygon>
                                    <path d="M18.0163598,2.5793541 C18.0163598,2.90370401 17.9844159,3.18171823 17.9045562,3.41339674 C17.8246964,3.64507525 17.7288647,3.83041806 17.6010891,3.9848704 C17.4733135,4.13932274 17.313594,4.24743938 17.1219306,4.30922031 C16.9462392,4.38644649 16.7386038,4.41733695 16.5149965,4.41733695 C16.2913892,4.41733695 16.0837539,4.38644649 15.9080624,4.30922031 C15.732371,4.23199414 15.5726515,4.12387751 15.4289039,3.9848704 C15.3011283,3.83041806 15.1893246,3.64507525 15.1254368,3.41339674 C15.0455771,3.18171823 15.0136332,2.90370401 15.0136332,2.5793541 L15.0136332,1.83798286 C15.0136332,1.51363294 15.0455771,1.23561873 15.1254368,1.00394022 C15.2052966,0.772261705 15.3011283,0.586918896 15.4289039,0.432466555 C15.5566795,0.278014214 15.716399,0.169897575 15.9080624,0.108116639 C16.0837539,0.0308904682 16.2913892,0 16.5149965,0 C16.7386038,0 16.9462392,0.0308904682 17.1219306,0.108116639 C17.2976221,0.185342809 17.4573416,0.293459448 17.6010891,0.432466555 C17.7288647,0.586918896 17.8406684,0.772261705 17.9045562,1.00394022 C17.9844159,1.23561873 18.0163598,1.51363294 18.0163598,1.83798286 L18.0163598,2.5793541 Z M17.1379026,1.71442099 C17.1379026,1.52907818 17.1219306,1.3591806 17.0899867,1.23561873 C17.0580428,1.11205686 17.0260989,1.00394022 16.9622111,0.926714046 C16.8983233,0.849487876 16.8504075,0.787706939 16.7705477,0.756816471 C16.690688,0.725926003 16.6108282,0.710480769 16.5149965,0.710480769 C16.4191648,0.710480769 16.3233331,0.725926003 16.2594453,0.756816471 C16.1795856,0.787706939 16.1156978,0.849487876 16.0677819,0.926714046 C16.0198661,1.00394022 15.9719502,1.11205686 15.9400063,1.23561873 C15.9080624,1.3591806 15.8920905,1.52907818 15.8920905,1.71442099 L15.8920905,2.68747073 C15.8920905,2.87281354 15.9080624,3.04271112 15.9400063,3.16627299 C15.9719502,3.3052801 16.0038941,3.3979515 16.0677819,3.49062291 C16.1156978,3.56784908 16.1795856,3.62963001 16.2594453,3.66052048 C16.3393051,3.69141095 16.4191648,3.70685618 16.5149965,3.70685618 C16.6108282,3.70685618 16.7066599,3.69141095 16.7705477,3.66052048 C16.8504075,3.62963001 16.9142953,3.56784908 16.9622111,3.49062291 C17.010127,3.41339674 17.0580428,3.3052801 17.0740148,3.16627299 C17.1059587,3.02726588 17.1219306,2.87281354 17.1219306,2.68747073 L17.1219306,1.71442099 L17.1379026,1.71442099 Z"></path>
                                    <polygon points="22.1253542 4.41733695 21.2633274 4.41733695 21.2633274 1.16487948 20.2288953 1.47171509 20.2288953 0.781334966 22.0313149 0.152321964 22.1253542 0.152321964"></polygon>
                                    <polygon points="26.8665015 4.41733695 26.0044747 4.41733695 26.0044747 1.16487948 24.9700426 1.47171509 24.9700426 0.781334966 26.7724622 0.152321964 26.8665015 0.152321964"></polygon>
                                </g>
                            </g>
                            <g transform="translate(6.005453, 6.854488)" fill="#FFFFFF" id="Shape">
                                <path d="M17.7951063,19.542908 L10.9204427,12.9169025 L13.4332508,10.4949833 L20.3079144,17.1209887 C21.0032827,17.7912054 21.0032827,18.8726913 20.3079144,19.542908 C19.6125461,20.2131246 18.4904746,20.2131246 17.7951063,19.542908 Z"></path>
                                <path d="M13.1961934,2.22390067 C10.1934667,-0.670216641 5.32588883,-0.670216641 2.33896601,2.22390067 C-0.663760626,5.11801799 -0.663760626,9.80953448 2.33896601,12.6884196 C5.34169265,15.5825369 10.2092706,15.5825369 13.1961934,12.6884196 C16.19892,9.79430228 16.19892,5.10278579 13.1961934,2.22390067 Z M11.3155383,10.860556 C9.35586406,12.7493484 6.19509917,12.7493484 4.23542494,10.860556 C2.27575072,8.97176367 2.27575072,5.9253244 4.23542494,4.03653204 C6.19509917,2.14773969 9.35586406,2.14773969 11.3155383,4.03653204 C13.2594087,5.9253244 13.2594087,8.98699587 11.3155383,10.860556 Z"></path>
                            </g>
                        </g>
                        <path d="M25.7602338,32.9929374 C25.4125497,32.9929374 25.0648655,32.8710798 24.7962005,32.6121325 C24.2588705,32.0942378 24.2588705,31.2716992 24.7962005,30.7538045 L29.2054675,26.5040217 L24.7962005,22.2390067 C24.2588705,21.7211121 24.2588705,20.8985734 24.7962005,20.3806788 C25.3335305,19.8627841 26.1869371,19.8627841 26.7242671,20.3806788 L32.0975674,25.5596255 C32.3504286,25.8033407 32.492663,26.138449 32.492663,26.4887895 C32.492663,26.83913 32.3504286,27.1742384 32.0975674,27.4179535 L26.7242671,32.5969003 C26.4556021,32.8558476 26.1079179,32.9929374 25.7602338,32.9929374 Z" id="Shape" fill="#FFFFFF"></path>
                        <path d="M83.523212,32.9929374 C83.8708962,32.9929374 84.2185803,32.8710798 84.4872453,32.6121325 C85.0245754,32.0942378 85.0245754,31.2716992 84.4872453,30.7538045 L80.0779783,26.5040217 L84.4872453,22.2542389 C85.0245754,21.7363443 85.0245754,20.9138056 84.4872453,20.395911 C83.9499153,19.8780163 83.0965088,19.8780163 82.5591788,20.395911 L77.1858785,25.5748577 C76.9330173,25.8185729 76.7907828,26.1536812 76.7907828,26.5040217 C76.7907828,26.8543622 76.9330173,27.1894706 77.1858785,27.4331857 L82.5591788,32.6121325 C82.8120399,32.8558476 83.1755279,32.9929374 83.523212,32.9929374 Z" id="Shape" fill="#FFFFFF"></path>
                        <g transform="translate(74.752089, 58.643956)">
                            <ellipse id="Oval" stroke="#FFFFFF" stroke-width="2" cx="16.9733074" cy="16.4964687" rx="16.9733074" ry="16.3593789"></ellipse>
                            <path d="M19.3438811,20.1521958 C19.3438811,19.8323197 19.2964696,19.5581402 19.2174505,19.3296572 C19.1384314,19.0859421 18.9961969,18.8726913 18.8065511,18.689905 C18.6169052,18.4918864 18.364044,18.3243323 18.0637713,18.1567781 C17.7634986,17.9892239 17.3842069,17.836902 16.9416998,17.68458 C16.1831162,17.4104005 15.5035518,17.1209887 14.8872026,16.8163448 C14.2708534,16.5117009 13.7493272,16.1613604 13.3068202,15.7805555 C12.8643131,15.3845184 12.5324328,14.9275525 12.2795716,14.3944256 C12.0425142,13.8612987 11.9160836,13.2367787 11.9160836,12.5056332 C11.9160836,11.8811132 12.0267104,11.3022897 12.2479639,10.7691628 C12.4692175,10.2512682 12.7694901,9.79430228 13.1803896,9.41349737 C13.5754852,9.03269246 14.0654037,8.71281634 14.6185376,8.46910119 C15.1716714,8.22538605 15.8038244,8.07306409 16.4991927,8.0121353 L16.4991927,5.62068047 L18.3482401,5.62068047 L18.3482401,8.04259969 C19.0120008,8.13399287 19.6125461,8.31677923 20.1498761,8.59095876 C20.6872062,8.8651383 21.1455171,9.23071101 21.5248089,9.65721251 C21.9041006,10.0989462 22.1885695,10.6168409 22.3940192,11.2108965 C22.5994689,11.8049522 22.6942919,12.4751688 22.6942919,13.2215465 L19.3438811,13.2215465 C19.3438811,12.3228469 19.1542352,11.6678624 18.7749434,11.2261287 C18.3956516,10.784395 17.8741254,10.5559121 17.2419724,10.5559121 C16.8942883,10.5559121 16.5940156,10.6016087 16.3411544,10.7082341 C16.0882933,10.8148594 15.8828435,10.9519492 15.7248053,11.1195034 C15.5667671,11.2870575 15.4403365,11.5003083 15.3613173,11.7440234 C15.2822982,11.9877386 15.2506906,12.2314537 15.2506906,12.5208654 C15.2506906,12.795045 15.2822982,13.0387601 15.3613173,13.2672431 C15.4403365,13.495726 15.5667671,13.6937446 15.7564129,13.8917631 C15.9460588,14.0745495 16.19892,14.2573358 16.5149965,14.42489 C16.831073,14.5924441 17.2103648,14.7599983 17.6844795,14.9427847 C18.4272593,15.2321964 19.1068237,15.5368403 19.7231729,15.8414842 C20.339522,16.1461282 20.8610482,16.4964687 21.3035553,16.8925058 C21.7460624,17.2885429 22.0779427,17.760741 22.3308039,18.2786357 C22.5678613,18.8117625 22.6942919,19.4362826 22.6942919,20.1521958 C22.6942919,20.8071803 22.5836651,21.4012359 22.3624116,21.9191306 C22.141158,22.4370253 21.8250815,22.8939912 21.4299859,23.2747961 C21.0348903,23.655601 20.5449717,23.9602449 19.9760341,24.1887279 C19.4070964,24.4172108 18.7749434,24.5695328 18.0795751,24.6304616 L18.0795751,26.8543622 L16.2463315,26.8543622 L16.2463315,24.6456938 C15.5983747,24.584765 14.9820255,24.432443 14.3814802,24.2039601 C13.7809349,23.9754771 13.2594087,23.655601 12.785294,23.2443317 C12.326983,22.8178302 11.9476913,22.2999355 11.6790262,21.6601833 C11.3945574,21.020431 11.2681268,20.2588212 11.2681268,19.3601216 L14.6185376,19.3601216 C14.6185376,19.8932485 14.6975567,20.3349822 14.8397911,20.6853227 C14.9820255,21.0356632 15.1716714,21.3250749 15.4087288,21.5383257 C15.6457862,21.7515764 15.9144512,21.9038984 16.2305277,21.9800594 C16.5308003,22.0714526 16.8468768,22.101917 17.1629533,22.101917 C17.5264413,22.101917 17.8425178,22.0562204 18.1111828,21.949595 C18.3798478,21.8582018 18.6169052,21.7211121 18.8065511,21.5535579 C18.9961969,21.3860037 19.1384314,21.172753 19.2174505,20.94427 C19.2964696,20.6853227 19.3438811,20.4416076 19.3438811,20.1521958 Z" id="Shape" fill="#FFFFFF"></path>
                        </g>
                    </g>
                </g>
            </g>
        </g>
    </g>
</svg>