<?xml version="1.0" encoding="UTF-8"?>
<svg width="245px" height="88px" viewBox="0 0 245 88" version="1.1" xmlns="http://www.w3.org/2000/svg" xmlns:xlink="http://www.w3.org/1999/xlink">
    <defs>
        <polygon id="path-1" points="0 0.591976 39.4448237 0.591976 39.4448237 63.256776 0 63.256776"></polygon>
        <polygon id="path-3" points="0 88 244.808759 88 244.808759 0.46992 0 0.46992"></polygon>
        <path d="M11.8049577,0.777272727 C9.34174648,1.51740909 6.73301408,1.91036364 4.02312676,1.91036364 C2.93704225,1.91036364 1.86249296,1.84472727 0.810126761,1.71345455 L0.810126761,18.9982727 L62.8074507,18.9982727 L62.8074507,0.777272727 L11.8049577,0.777272727 Z" id="path-5"></path>
        <linearGradient x1="-0.000750536711%" y1="49.9980671%" x2="100.00004%" y2="49.9980671%" id="linearGradient-7">
            <stop stop-color="#3FB6E8" offset="0%"></stop>
            <stop stop-color="#60C8EF" offset="100%"></stop>
        </linearGradient>
        <polygon id="path-8" points="0.705214851 0.673149923 88.3534723 0.673149923 88.3534723 71 0.705214851 71"></polygon>
        <path d="M44.5290792,0.468074074 C33.937198,0.468074074 24.2185743,4.20653086 16.6403564,10.4361235 C16.5531188,10.5036173 16.465,10.5754938 16.3777624,10.6517531 C15.9768218,10.9787037 15.5855743,11.3170494 15.1996139,11.6694198 C15.0048713,11.8429753 14.8101287,12.0226667 14.6136238,12.2006049 C14.1827228,12.6003086 13.7606337,13.0096543 13.3544059,13.4233827 C13.2363267,13.541716 13.1182475,13.6591728 13.0045743,13.7818889 C12.8248119,13.9607037 12.6494554,14.1395185 12.4855545,14.3235926 C12.3366337,14.4822469 12.1868317,14.6409012 12.043198,14.8048148 C11.8740099,14.9836296 11.7136337,15.1624444 11.5541386,15.3465185 C11.4052178,15.5156914 11.2571782,15.6839877 11.1126634,15.8584198 C11.0871089,15.8838395 11.0668416,15.9092593 11.0509802,15.934679 C10.9117525,16.0933333 10.7734059,16.2519877 10.6394653,16.4211605 C10.2385248,16.9015062 9.85256436,17.3923704 9.47717822,17.8946296 C9.33266337,18.0830864 9.1890297,18.277679 9.05068317,18.4722716 C9.00926733,18.5187284 8.97842574,18.5643086 8.94758416,18.6098889 C8.7889703,18.8255185 8.63388119,19.0446543 8.48055446,19.2646667 C8.27964356,19.546037 8.0840198,19.8379259 7.8989703,20.123679 C7.70334653,20.4208272 7.50772277,20.7170988 7.32355446,21.0195062 C7.1940198,21.2237407 7.06536634,21.4332346 6.94288119,21.6436049 C6.81863366,21.8329383 6.70584158,22.0266543 6.5930495,22.2212469 C6.43355446,22.497358 6.27405941,22.7787284 6.11985149,23.0600988 C5.15847525,24.788642 4.31517822,26.5890617 3.60053465,28.4560988 C3.4560198,28.8295062 3.31767327,29.202037 3.18373267,29.5807037 C3.05067327,29.9593704 2.9220198,30.338037 2.79777228,30.721963 C2.67528713,31.1006296 2.55632673,31.4889383 2.44353465,31.8728642 C2.20649505,32.6757778 1.99589109,33.4839506 1.80555446,34.3070247 C1.72360396,34.6760494 1.64077228,35.043321 1.56851485,35.4123457 C1.3279505,36.6088272 1.13232673,37.8254691 0.99309901,39.0587654 C0.947277228,39.4269136 0.911148515,39.800321 0.875019802,40.1746049 C0.869732673,40.276284 0.860039604,40.3840988 0.849465347,40.4962963 C0.823910891,40.844284 0.798356436,41.1922716 0.777207921,41.5393827 C0.73050495,42.3729753 0.704950495,43.2170864 0.704950495,44.0611975 C7.60112871,76.0743086 43.2495941,70.5047531 44.4938317,70.3005185 C43.8355842,70.3005185 43.1826238,70.2742222 42.5393564,70.2233827 C42.2882178,70.2023457 42.036198,70.1830617 41.783297,70.1567654 C41.356802,70.1155679 40.9347129,70.0594691 40.5143861,69.9928519 C40.2923267,69.9569136 40.0773168,69.9218519 39.8605446,69.8859136 L39.2128713,69.7631975 C38.5449307,69.6247037 37.881396,69.4669259 37.2275545,69.2775926 C37.0795149,69.2363951 36.9244257,69.1899383 36.771099,69.1390988 C36.5393465,69.0724815 36.3023069,68.9953457 36.0714356,68.9190864 C35.8088416,68.8323086 35.5515347,68.7402716 35.2995149,68.6429753 C34.9496832,68.515 34.6060198,68.3773827 34.2614752,68.2336296 C34.0605644,68.1512346 33.8658218,68.0705926 33.6754851,67.977679 C32.5079109,67.4508765 31.3817525,66.8425556 30.3119901,66.162358 C30.1480891,66.0598025 29.9824257,65.9528642 29.8238119,65.8450494 C29.6026337,65.696037 29.3867426,65.5487778 29.1752574,65.3892469 C29.0316238,65.2928272 28.8879901,65.1902716 28.7487624,65.0824568 C28.569,64.9544815 28.3945248,64.8168642 28.2244554,64.6845062 C28.0649604,64.5661728 27.9054653,64.4381975 27.7521386,64.3058395 C27.5917624,64.1726049 27.4278614,64.0341111 27.2683663,63.8964938 C27.1088713,63.7685185 26.9493762,63.6300247 26.7951683,63.4818889 C26.4814653,63.2057778 26.1783366,62.9191481 25.880495,62.612358 C25.7254059,62.4694815 25.5764851,62.3160864 25.4381386,62.1618148 C25.1394158,61.8611605 24.8565545,61.5482346 24.5842673,61.2309259 C24.3216733,60.9399136 24.0802277,60.643642 23.8440693,60.3412346 C23.6898614,60.1475185 23.5400594,59.9520494 23.3920198,59.7583333 C23.1602673,59.4568025 22.9329208,59.1500123 22.727604,58.8327037 C22.6615149,58.7301481 22.5892574,58.6337284 22.5222871,58.5311728 C22.4500297,58.423358 22.3777723,58.3111605 22.3055149,58.2033457 C22.193604,58.0245309 22.0808119,57.845716 21.9724257,57.6660247 C21.8596337,57.4872099 21.7512475,57.3031358 21.6481485,57.1190617 C21.5353564,56.9349877 21.4322574,56.7509136 21.3344455,56.5668395 C21.2322277,56.3827654 21.1335347,56.1934321 21.036604,56.0040988 C20.840099,55.6306914 20.6559307,55.2467654 20.4814554,54.8584568 C20.1880198,54.2089383 19.9201386,53.5489012 19.6795743,52.873963 C19.622297,52.7416049 19.5764752,52.6127531 19.5394653,52.4742593 C19.4680891,52.275284 19.4011188,52.0710494 19.3394356,51.8659383 C19.3244554,51.8256173 19.3085941,51.789679 19.2980198,51.7484815 C19.2469109,51.5845679 19.195802,51.4162716 19.1543861,51.2470988 C19.0874158,51.0428642 19.0310198,50.8324938 18.9790297,50.6186173 C18.9279208,50.4082469 18.8768119,50.1987531 18.8248218,49.9883827 C18.7684257,49.7788889 18.722604,49.5650123 18.6864752,49.3493827 C18.3260693,47.641 18.141901,45.8712593 18.141901,44.0611975 C18.141901,43.3547037 18.1727426,42.649963 18.2344257,41.9583704 C18.2494059,41.7295926 18.2696733,41.4990617 18.3005149,41.2685309 C18.3216634,41.0432593 18.3516238,40.8136049 18.3833465,40.5830741 C18.4397426,40.1272716 18.512,39.6776049 18.5992376,39.2331975 C18.675901,38.7826543 18.7737129,38.3426296 18.8812178,37.9034815 C19.0979901,37.0129136 19.3605842,36.1433827 19.6584257,35.2896296 C19.8073465,34.880284 19.9615545,34.4761975 20.1316238,34.0721111 C20.2135743,33.8678765 20.3008119,33.6680247 20.3942178,33.4629136 C20.4752871,33.258679 20.5686931,33.0588272 20.6717921,32.8598519 C20.7590297,32.6608765 20.8559604,32.4601481 20.9643465,32.2664321 C21.0612772,32.0665802 21.1643762,31.8728642 21.2674752,31.6782716 C21.4727921,31.289963 21.6948515,30.906037 21.9257228,30.5326296 C22.1266337,30.2048025 22.3319505,29.8787284 22.5434356,29.5614198 C23.0730297,28.7576296 23.6484455,27.9906543 24.2705644,27.2596173 C24.3939307,27.1158642 24.5225842,26.9677284 24.6459505,26.8248519 C25.2169604,26.1648148 25.828505,25.5310741 26.4708911,24.9323951 C31.1914158,20.5277654 37.5465446,17.8271358 44.5290792,17.8271358 C44.5290792,17.8271358 81.3345446,11.4748272 88.3532079,44.0611975 C88.3532079,19.9808025 68.7370792,0.468074074 44.5290792,0.468074074 Z" id="path-10"></path>
        <linearGradient x1="0.000478656023%" y1="49.9997566%" x2="100.000482%" y2="49.9997566%" id="linearGradient-12">
            <stop stop-color="#3FB6E8" offset="0%"></stop>
            <stop stop-color="#60C8EF" offset="100%"></stop>
        </linearGradient>
    </defs>
    <g id="Logo">
        <g id="Group-7">
            <g id="Group-3" transform="translate(0.000000, 24.640000)">
                <mask id="mask-2" fill="white">
                    <use xlink:href="#path-1"></use>
                </mask>
                <g id="Clip-2"></g>
                <path d="M-0.000176258993,0.591976 L13.828223,0.591976 L13.828223,35.083576 C13.828223,43.603736 20.7455072,50.511736 29.278205,50.511736 L39.4448237,50.511736 L39.4448237,63.256776 L25.6164245,63.256776 C11.4689964,63.256776 -0.000176258993,51.804456 -0.000176258993,37.677816 L-0.000176258993,0.591976 Z" id="Fill-1" fill="#BBBDBF" mask="url(#mask-2)"></path>
            </g>
            <mask id="mask-4" fill="white">
                <use xlink:href="#path-3"></use>
            </mask>
            <g id="Clip-5"></g>
            <polygon id="Fill-4" fill="#BBBDBF" mask="url(#mask-4)" points="46.8892986 87.89704 60.7168165 87.89704 60.7168165 25.23224 46.8892986 25.23224"></polygon>
            <polygon id="Fill-6" fill="#BBBDBF" mask="url(#mask-4)" points="73.3035594 25.231976 92.0954119 25.231976 118.775736 68.778776 118.952876 68.778776 118.952876 25.231976 132.780394 25.231976 132.780394 87.896776 114.697984 87.896776 87.3090989 43.287816 87.1310773 43.287816 87.1310773 87.896776 73.3035594 87.896776"></polygon>
        </g>
        <g id="Group-10" transform="translate(182.000000, 69.000000)">
            <mask id="mask-6" fill="white">
                <use xlink:href="#path-5"></use>
            </mask>
            <g id="Clip-9"></g>
            <path d="M11.8049577,0.777272727 C9.34174648,1.51740909 6.73301408,1.91036364 4.02312676,1.91036364 C2.93704225,1.91036364 1.86249296,1.84472727 0.810126761,1.71345455 L0.810126761,18.9982727 L62.8074507,18.9982727 L62.8074507,0.777272727 L11.8049577,0.777272727 Z" id="Fill-8" fill="url(#linearGradient-7)" mask="url(#mask-6)"></path>
        </g>
        <g id="Group-13" transform="translate(142.000000, 17.000000)">
            <mask id="mask-9" fill="white">
                <use xlink:href="#path-8"></use>
            </mask>
            <g id="Clip-12"></g>
            <path d="M72.4242347,61.0365086 C82.1525515,53.0371753 88.3534723,40.9461383 88.3534723,27.4070519 C81.3348089,-5.17931852 44.5293436,1.17299012 44.5293436,1.17299012 C59.0962644,1.17299012 70.9068287,12.916916 70.9068287,27.4070519 C70.9068287,34.9514593 67.708997,41.7490519 62.5831257,46.5305951 C57.8670069,50.9448667 51.5171653,53.6454963 44.5293436,53.6454963 L44.4932149,53.6454963 C43.2489772,53.8497309 7.60051188,59.420163 0.705214851,27.4070519 C0.705214851,42.1426198 8.0587297,55.1698049 19.2982842,63.0569407 C26.4253337,68.0541136 35.1358782,71.0001753 44.5293436,71.0001753 C55.1273931,71.0001753 64.8451356,67.260842 72.4242347,61.0365086" id="Fill-11" fill="#2356AF" mask="url(#mask-9)"></path>
        </g>
        <g id="Group-16" transform="translate(142.000000, 0.000000)">
            <mask id="mask-11" fill="white">
                <use xlink:href="#path-10"></use>
            </mask>
            <g id="Clip-15"></g>
            <path d="M44.5290792,0.468074074 C33.937198,0.468074074 24.2185743,4.20653086 16.6403564,10.4361235 C16.5531188,10.5036173 16.465,10.5754938 16.3777624,10.6517531 C15.9768218,10.9787037 15.5855743,11.3170494 15.1996139,11.6694198 C15.0048713,11.8429753 14.8101287,12.0226667 14.6136238,12.2006049 C14.1827228,12.6003086 13.7606337,13.0096543 13.3544059,13.4233827 C13.2363267,13.541716 13.1182475,13.6591728 13.0045743,13.7818889 C12.8248119,13.9607037 12.6494554,14.1395185 12.4855545,14.3235926 C12.3366337,14.4822469 12.1868317,14.6409012 12.043198,14.8048148 C11.8740099,14.9836296 11.7136337,15.1624444 11.5541386,15.3465185 C11.4052178,15.5156914 11.2571782,15.6839877 11.1126634,15.8584198 C11.0871089,15.8838395 11.0668416,15.9092593 11.0509802,15.934679 C10.9117525,16.0933333 10.7734059,16.2519877 10.6394653,16.4211605 C10.2385248,16.9015062 9.85256436,17.3923704 9.47717822,17.8946296 C9.33266337,18.0830864 9.1890297,18.277679 9.05068317,18.4722716 C9.00926733,18.5187284 8.97842574,18.5643086 8.94758416,18.6098889 C8.7889703,18.8255185 8.63388119,19.0446543 8.48055446,19.2646667 C8.27964356,19.546037 8.0840198,19.8379259 7.8989703,20.123679 C7.70334653,20.4208272 7.50772277,20.7170988 7.32355446,21.0195062 C7.1940198,21.2237407 7.06536634,21.4332346 6.94288119,21.6436049 C6.81863366,21.8329383 6.70584158,22.0266543 6.5930495,22.2212469 C6.43355446,22.497358 6.27405941,22.7787284 6.11985149,23.0600988 C5.15847525,24.788642 4.31517822,26.5890617 3.60053465,28.4560988 C3.4560198,28.8295062 3.31767327,29.202037 3.18373267,29.5807037 C3.05067327,29.9593704 2.9220198,30.338037 2.79777228,30.721963 C2.67528713,31.1006296 2.55632673,31.4889383 2.44353465,31.8728642 C2.20649505,32.6757778 1.99589109,33.4839506 1.80555446,34.3070247 C1.72360396,34.6760494 1.64077228,35.043321 1.56851485,35.4123457 C1.3279505,36.6088272 1.13232673,37.8254691 0.99309901,39.0587654 C0.947277228,39.4269136 0.911148515,39.800321 0.875019802,40.1746049 C0.869732673,40.276284 0.860039604,40.3840988 0.849465347,40.4962963 C0.823910891,40.844284 0.798356436,41.1922716 0.777207921,41.5393827 C0.73050495,42.3729753 0.704950495,43.2170864 0.704950495,44.0611975 C7.60112871,76.0743086 43.2495941,70.5047531 44.4938317,70.3005185 C43.8355842,70.3005185 43.1826238,70.2742222 42.5393564,70.2233827 C42.2882178,70.2023457 42.036198,70.1830617 41.783297,70.1567654 C41.356802,70.1155679 40.9347129,70.0594691 40.5143861,69.9928519 C40.2923267,69.9569136 40.0773168,69.9218519 39.8605446,69.8859136 L39.2128713,69.7631975 C38.5449307,69.6247037 37.881396,69.4669259 37.2275545,69.2775926 C37.0795149,69.2363951 36.9244257,69.1899383 36.771099,69.1390988 C36.5393465,69.0724815 36.3023069,68.9953457 36.0714356,68.9190864 C35.8088416,68.8323086 35.5515347,68.7402716 35.2995149,68.6429753 C34.9496832,68.515 34.6060198,68.3773827 34.2614752,68.2336296 C34.0605644,68.1512346 33.8658218,68.0705926 33.6754851,67.977679 C32.5079109,67.4508765 31.3817525,66.8425556 30.3119901,66.162358 C30.1480891,66.0598025 29.9824257,65.9528642 29.8238119,65.8450494 C29.6026337,65.696037 29.3867426,65.5487778 29.1752574,65.3892469 C29.0316238,65.2928272 28.8879901,65.1902716 28.7487624,65.0824568 C28.569,64.9544815 28.3945248,64.8168642 28.2244554,64.6845062 C28.0649604,64.5661728 27.9054653,64.4381975 27.7521386,64.3058395 C27.5917624,64.1726049 27.4278614,64.0341111 27.2683663,63.8964938 C27.1088713,63.7685185 26.9493762,63.6300247 26.7951683,63.4818889 C26.4814653,63.2057778 26.1783366,62.9191481 25.880495,62.612358 C25.7254059,62.4694815 25.5764851,62.3160864 25.4381386,62.1618148 C25.1394158,61.8611605 24.8565545,61.5482346 24.5842673,61.2309259 C24.3216733,60.9399136 24.0802277,60.643642 23.8440693,60.3412346 C23.6898614,60.1475185 23.5400594,59.9520494 23.3920198,59.7583333 C23.1602673,59.4568025 22.9329208,59.1500123 22.727604,58.8327037 C22.6615149,58.7301481 22.5892574,58.6337284 22.5222871,58.5311728 C22.4500297,58.423358 22.3777723,58.3111605 22.3055149,58.2033457 C22.193604,58.0245309 22.0808119,57.845716 21.9724257,57.6660247 C21.8596337,57.4872099 21.7512475,57.3031358 21.6481485,57.1190617 C21.5353564,56.9349877 21.4322574,56.7509136 21.3344455,56.5668395 C21.2322277,56.3827654 21.1335347,56.1934321 21.036604,56.0040988 C20.840099,55.6306914 20.6559307,55.2467654 20.4814554,54.8584568 C20.1880198,54.2089383 19.9201386,53.5489012 19.6795743,52.873963 C19.622297,52.7416049 19.5764752,52.6127531 19.5394653,52.4742593 C19.4680891,52.275284 19.4011188,52.0710494 19.3394356,51.8659383 C19.3244554,51.8256173 19.3085941,51.789679 19.2980198,51.7484815 C19.2469109,51.5845679 19.195802,51.4162716 19.1543861,51.2470988 C19.0874158,51.0428642 19.0310198,50.8324938 18.9790297,50.6186173 C18.9279208,50.4082469 18.8768119,50.1987531 18.8248218,49.9883827 C18.7684257,49.7788889 18.722604,49.5650123 18.6864752,49.3493827 C18.3260693,47.641 18.141901,45.8712593 18.141901,44.0611975 C18.141901,43.3547037 18.1727426,42.649963 18.2344257,41.9583704 C18.2494059,41.7295926 18.2696733,41.4990617 18.3005149,41.2685309 C18.3216634,41.0432593 18.3516238,40.8136049 18.3833465,40.5830741 C18.4397426,40.1272716 18.512,39.6776049 18.5992376,39.2331975 C18.675901,38.7826543 18.7737129,38.3426296 18.8812178,37.9034815 C19.0979901,37.0129136 19.3605842,36.1433827 19.6584257,35.2896296 C19.8073465,34.880284 19.9615545,34.4761975 20.1316238,34.0721111 C20.2135743,33.8678765 20.3008119,33.6680247 20.3942178,33.4629136 C20.4752871,33.258679 20.5686931,33.0588272 20.6717921,32.8598519 C20.7590297,32.6608765 20.8559604,32.4601481 20.9643465,32.2664321 C21.0612772,32.0665802 21.1643762,31.8728642 21.2674752,31.6782716 C21.4727921,31.289963 21.6948515,30.906037 21.9257228,30.5326296 C22.1266337,30.2048025 22.3319505,29.8787284 22.5434356,29.5614198 C23.0730297,28.7576296 23.6484455,27.9906543 24.2705644,27.2596173 C24.3939307,27.1158642 24.5225842,26.9677284 24.6459505,26.8248519 C25.2169604,26.1648148 25.828505,25.5310741 26.4708911,24.9323951 C31.1914158,20.5277654 37.5465446,17.8271358 44.5290792,17.8271358 C44.5290792,17.8271358 81.3345446,11.4748272 88.3532079,44.0611975 C88.3532079,19.9808025 68.7370792,0.468074074 44.5290792,0.468074074 Z" id="Fill-14" fill="url(#linearGradient-12)" mask="url(#mask-11)"></path>
        </g>
    </g>
</svg>