<svg width="135px" height="41px" viewBox="0 0 135 41" version="1.1" xmlns="http://www.w3.org/2000/svg" xmlns:xlink="http://www.w3.org/1999/xlink">
    <!-- Generator: Sketch 51.3 (57544) - http://www.bohemiancoding.com/sketch -->
    <title>Logo</title>
    <desc>Created with Sketch.</desc>
    <defs></defs>
    <g id="Page-1" stroke="none" stroke-width="1" fill="none" fill-rule="evenodd">
        <g id="Web-Main" transform="translate(-65.000000, -45.000000)" fill="#FFFFFF">
            <g id="Hero" transform="translate(-213.000000, -270.000000)">
                <g id="Top-Nav" transform="translate(278.000000, 315.000000)">
                    <g id="Logo">
                        <g id="logo-blue" transform="translate(87.000000, 0.000000)">
                            <path d="M24.4541,32.3603 C23.3261,32.7093 22.1321,32.8933 20.8911,32.8933 C20.3931,32.8933 19.9011,32.8623 19.4191,32.8003 L19.4191,40.9313 L47.8061,40.9313 L47.8061,32.3603 L24.4541,32.3603 Z" id="Fill-13"></path>
                            <path d="M20.8911,32.8935 C20.3931,32.8935 19.9011,32.8625 19.4191,32.8005 C13.3951,32.0785 8.7301,26.9465 8.7301,20.7275 C8.7301,14.0115 14.1751,8.5675 20.8911,8.5675 C27.6071,8.5675 33.0511,14.0115 33.0511,20.7275 C33.0511,26.2035 29.4321,30.8375 24.4541,32.3605 C23.3261,32.7085 22.1321,32.8935 20.8911,32.8935 M20.8911,0.5235 C9.7301,0.5235 0.6861,9.5665 0.6861,20.7275 C0.6861,31.3915 8.9461,40.1265 19.4191,40.8805 C19.9071,40.9165 20.3931,40.9315 20.8911,40.9315 C27.7201,40.9315 33.7591,37.5425 37.4141,32.3605 C39.7311,29.0745 41.0951,25.0595 41.0951,20.7275 C41.0951,9.5665 32.0521,0.5235 20.8911,0.5235" id="Fill-14"></path>
                        </g>
                        <path d="M0,1 L8.41339275,1 L8.41339275,22.4656834 C8.41339275,27.7689699 12.622542,32.0671172 17.8138261,32.0671172 L24,32.0671172 L24,40 L15.5866073,40 C6.97796492,40 0,32.8728319 0,24.0801192 L0,1 Z" id="Fill-15"></path>
                        <polygon id="Fill-16" points="29 40 38 40 38 1 29 1"></polygon>
                        <polygon id="Fill-17" points="46 1 57.6899656 1 74.2874495 28.1016779 74.3977984 28.1016779 74.3977984 1 83 1 83 40 71.750427 40 54.7125505 12.2369145 54.6022016 12.2369145 54.6022016 40 46 40"></polygon>
                    </g>
                </g>
            </g>
        </g>
    </g>
</svg>