<?xml version="1.0" encoding="UTF-8"?>
<svg width="147px" height="129px" viewBox="0 0 147 129" version="1.1" xmlns="http://www.w3.org/2000/svg" xmlns:xlink="http://www.w3.org/1999/xlink">
    <!-- Generator: Sketch 51.3 (57544) - http://www.bohemiancoding.com/sketch -->
    <title>Icon</title>
    <desc>Created with Sketch.</desc>
    <defs></defs>
    <g id="Page-1" stroke="none" stroke-width="1" fill="none" fill-rule="evenodd">
        <g id="Web-Main" transform="translate(-1371.000000, -1988.000000)" fill-rule="nonzero">
            <g id="Features-First-Part" transform="translate(52.000000, 1629.000000)">
                <g id="Feature-3" transform="translate(1128.000000, 332.000000)">
                    <g id="Icon" transform="translate(192.000000, 28.000000)">
                        <g id="Group">
                            <g transform="translate(48.684593, 0.000000)">
                                <path d="M44.2165698,60.8374376 L4.15188953,60.8374376 C1.91787791,60.8374376 0.0843023256,59.0201331 0.0843023256,56.7590682 L0.0843023256,4.26855241 C0.0843023256,2.02861897 1.89680233,0.190183028 4.15188953,0.190183028 L44.2165698,0.190183028 C46.4505814,0.190183028 48.284157,2.00748752 48.284157,4.26855241 L48.284157,56.7801997 C48.2630814,59.0201331 46.4505814,60.8374376 44.2165698,60.8374376 Z" id="Shape" stroke="#FFFFFF" stroke-width="2"></path>
                                <polygon id="Shape" fill="#FFFFFF" points="30.4542151 53.8429285 24.869186 48.2219634 27.4193314 45.6439268 30.4542151 48.7079867 37.9360465 41.2063228 40.5072674 43.763228"></polygon>
                                <rect id="Rectangle-path" fill="#FFFFFF" x="17.9563953" y="8.76955075" width="22.2768895" height="4.60665557"></rect>
                                <rect id="Rectangle-path" fill="#FFFFFF" x="8.11409884" y="18.7013311" width="32.119186" height="4.60665557"></rect>
                                <rect id="Rectangle-path" fill="#FFFFFF" x="8.11409884" y="28.6331115" width="32.119186" height="4.60665557"></rect>
                            </g>
                            <path d="M117.791424,69.8183028 C117.791424,67.3036606 119.81468,65.2750416 122.322674,65.2750416 C124.830669,65.2750416 126.853924,67.3036606 126.853924,69.8183028 C126.853924,72.3329451 124.830669,74.3615641 122.322674,74.3615641 C119.81468,74.3404326 117.791424,72.3118136 117.791424,69.8183028 Z M117.791424,53.4625624 C117.791424,50.9479201 119.81468,48.9193012 122.322674,48.9193012 C124.830669,48.9193012 126.853924,50.9479201 126.853924,53.4625624 C126.853924,55.9772047 124.830669,58.0058236 122.322674,58.0058236 C119.81468,58.0058236 117.791424,55.9772047 117.791424,53.4625624 Z M117.791424,37.106822 C117.791424,34.5921797 119.81468,32.5635607 122.322674,32.5635607 C124.830669,32.5635607 126.853924,34.5921797 126.853924,37.106822 C126.853924,39.6214642 124.830669,41.6500832 122.322674,41.6500832 C119.81468,41.6500832 117.791424,39.6214642 117.791424,37.106822 Z" id="Shape" fill="#FFFFFF"></path>
                            <path d="M18.8837209,69.8183028 C18.8837209,67.3036606 20.9069767,65.2750416 23.4149709,65.2750416 C25.9229651,65.2750416 27.9462209,67.3036606 27.9462209,69.8183028 C27.9462209,72.3329451 25.9229651,74.3615641 23.4149709,74.3615641 C20.9069767,74.3404326 18.8837209,72.3118136 18.8837209,69.8183028 Z M18.8837209,53.4625624 C18.8837209,50.9479201 20.9069767,48.9193012 23.4149709,48.9193012 C25.9229651,48.9193012 27.9462209,50.9479201 27.9462209,53.4625624 C27.9462209,55.9772047 25.9229651,58.0058236 23.4149709,58.0058236 C20.9069767,58.0058236 18.8837209,55.9772047 18.8837209,53.4625624 Z M18.8837209,37.106822 C18.8837209,34.5921797 20.9069767,32.5635607 23.4149709,32.5635607 C25.9229651,32.5635607 27.9462209,34.5921797 27.9462209,37.106822 C27.9462209,39.6214642 25.9229651,41.6500832 23.4149709,41.6500832 C20.9069767,41.6500832 18.8837209,39.6214642 18.8837209,37.106822 Z" id="Shape" fill="#FFFFFF"></path>
                            <g transform="translate(0.000000, 81.356073)">
                                <ellipse id="Oval" stroke="#FFFFFF" stroke-width="2" cx="22.6773256" cy="22.8853577" rx="22.6351744" ry="22.6951747"></ellipse>
                                <g transform="translate(3.161337, 8.452579)" fill="#FFFFFF" id="Shape">
                                    <g transform="translate(6.954942, 0.000000)">
                                        <polygon points="2.73982558 5.93793677 1.5806686 5.93793677 1.5806686 1.45806988 0.189680233 1.88069884 0.189680233 0.929783694 2.61337209 0.0633943428 2.73982558 0.0633943428"></polygon>
                                        <path d="M10.622093,3.52895175 C10.622093,3.97271215 10.5799419,4.3530782 10.474564,4.67004992 C10.369186,4.98702163 10.2427326,5.240599 10.0741279,5.45191348 C9.90552326,5.66322795 9.69476744,5.81114809 9.44186047,5.89567388 C9.18895349,6.00133111 8.93604651,6.04359401 8.64098837,6.04359401 C8.34593023,6.04359401 8.07194767,6.00133111 7.84011628,5.89567388 C7.60828488,5.79001664 7.39752907,5.64209651 7.20784884,5.45191348 C7.03924419,5.240599 6.89171512,4.98702163 6.80741279,4.67004992 C6.70203488,4.3530782 6.65988372,3.97271215 6.65988372,3.52895175 L6.65988372,2.51464226 C6.65988372,2.07088186 6.70203488,1.69051581 6.80741279,1.37354409 C6.9127907,1.05657238 7.03924419,0.802995008 7.20784884,0.591680532 C7.37645349,0.380366057 7.5872093,0.232445923 7.84011628,0.147920133 C8.07194767,0.0422628952 8.34593023,0 8.64098837,0 C8.93604651,0 9.21002907,0.0422628952 9.44186047,0.147920133 C9.67369186,0.253577371 9.88444767,0.401497504 10.0741279,0.591680532 C10.2427326,0.802995008 10.3902616,1.05657238 10.474564,1.37354409 C10.5799419,1.69051581 10.622093,2.07088186 10.622093,2.51464226 L10.622093,3.52895175 Z M9.46293605,2.34559068 C9.46293605,2.09201331 9.44186047,1.85956739 9.3997093,1.69051581 C9.35755814,1.52146423 9.31540698,1.37354409 9.23110465,1.26788686 C9.16787791,1.16222962 9.08357558,1.07770383 8.97819767,1.03544093 C8.87281977,0.993178037 8.76744186,0.972046589 8.64098837,0.972046589 C8.51453488,0.972046589 8.3880814,0.993178037 8.30377907,1.03544093 C8.19840116,1.07770383 8.11409884,1.16222962 8.05087209,1.26788686 C7.98764535,1.37354409 7.9244186,1.52146423 7.88226744,1.69051581 C7.84011628,1.85956739 7.8190407,2.09201331 7.8190407,2.34559068 L7.8190407,3.67687188 C7.8190407,3.93044925 7.84011628,4.16289517 7.88226744,4.33194676 C7.9244186,4.52212978 7.96656977,4.64891847 8.05087209,4.77570715 C8.11409884,4.88136439 8.19840116,4.96589018 8.30377907,5.00815308 C8.40915698,5.05041597 8.51453488,5.07154742 8.64098837,5.07154742 C8.76744186,5.07154742 8.89389535,5.05041597 8.97819767,5.00815308 C9.08357558,4.96589018 9.16787791,4.88136439 9.23110465,4.77570715 C9.2943314,4.67004992 9.35755814,4.52212978 9.37863372,4.33194676 C9.42078488,4.14176373 9.44186047,3.93044925 9.44186047,3.67687188 L9.44186047,2.34559068 L9.46293605,2.34559068 Z"></path>
                                        <polygon points="16.2703488 5.93793677 15.1111919 5.93793677 15.1111919 1.45806988 13.7202035 1.88069884 13.7202035 0.929783694 16.1438953 0.0633943428 16.2703488 0.0633943428"></polygon>
                                        <path d="M24.1526163,3.52895175 C24.1526163,3.97271215 24.1104651,4.3530782 24.0050872,4.67004992 C23.8997093,4.98702163 23.7732558,5.240599 23.6046512,5.45191348 C23.4360465,5.66322795 23.2252907,5.81114809 22.9723837,5.89567388 C22.7194767,6.00133111 22.4665698,6.04359401 22.1715116,6.04359401 C21.8764535,6.04359401 21.6024709,6.00133111 21.3706395,5.89567388 C21.1388081,5.79001664 20.9280523,5.64209651 20.7383721,5.45191348 C20.5697674,5.240599 20.4222384,4.98702163 20.337936,4.67004992 C20.2325581,4.3530782 20.190407,3.97271215 20.190407,3.52895175 L20.190407,2.51464226 C20.190407,2.07088186 20.2325581,1.69051581 20.337936,1.37354409 C20.443314,1.05657238 20.5697674,0.802995008 20.7383721,0.591680532 C20.9069767,0.380366057 21.1177326,0.232445923 21.3706395,0.147920133 C21.6024709,0.0422628952 21.8764535,0 22.1715116,0 C22.4665698,0 22.7405523,0.0422628952 22.9723837,0.147920133 C23.2042151,0.253577371 23.4149709,0.401497504 23.6046512,0.591680532 C23.7732558,0.802995008 23.9207849,1.05657238 24.0050872,1.37354409 C24.1104651,1.69051581 24.1526163,2.07088186 24.1526163,2.51464226 L24.1526163,3.52895175 Z M22.9934593,2.34559068 C22.9934593,2.09201331 22.9723837,1.85956739 22.9302326,1.69051581 C22.8880814,1.52146423 22.8459302,1.37354409 22.7616279,1.26788686 C22.6984012,1.16222962 22.6140988,1.07770383 22.5087209,1.03544093 C22.403343,0.993178037 22.2979651,0.972046589 22.1715116,0.972046589 C22.0450581,0.972046589 21.9186047,0.993178037 21.8343023,1.03544093 C21.7289244,1.07770383 21.6446221,1.16222962 21.5813953,1.26788686 C21.5181686,1.37354409 21.4549419,1.52146423 21.4127907,1.69051581 C21.3706395,1.85956739 21.349564,2.09201331 21.349564,2.34559068 L21.349564,3.67687188 C21.349564,3.93044925 21.3706395,4.16289517 21.4127907,4.33194676 C21.4549419,4.52212978 21.497093,4.64891847 21.5813953,4.77570715 C21.6446221,4.88136439 21.7289244,4.96589018 21.8343023,5.00815308 C21.9396802,5.05041597 22.0450581,5.07154742 22.1715116,5.07154742 C22.2979651,5.07154742 22.4244186,5.05041597 22.5087209,5.00815308 C22.6140988,4.96589018 22.6984012,4.88136439 22.7616279,4.77570715 C22.8248547,4.67004992 22.8880814,4.52212978 22.909157,4.33194676 C22.9513081,4.14176373 22.9723837,3.93044925 22.9723837,3.67687188 L22.9723837,2.34559068 L22.9934593,2.34559068 Z"></path>
                                    </g>
                                    <g transform="translate(6.954942, 17.327787)">
                                        <polygon points="2.73982558 6.1281198 1.5806686 6.1281198 1.5806686 1.64825291 0.189680233 2.07088186 0.189680233 1.11996672 2.61337209 0.253577371 2.73982558 0.253577371"></polygon>
                                        <path d="M10.622093,3.69800333 C10.622093,4.14176373 10.5799419,4.52212978 10.474564,4.8391015 C10.369186,5.15607321 10.2427326,5.40965058 10.0741279,5.62096506 C9.90552326,5.83227953 9.69476744,5.98019967 9.44186047,6.06472546 C9.18895349,6.1703827 8.93604651,6.21264559 8.64098837,6.21264559 C8.34593023,6.21264559 8.07194767,6.1703827 7.84011628,6.06472546 C7.60828488,5.95906822 7.39752907,5.81114809 7.20784884,5.62096506 C7.03924419,5.40965058 6.89171512,5.15607321 6.80741279,4.8391015 C6.70203488,4.52212978 6.65988372,4.14176373 6.65988372,3.69800333 L6.65988372,2.68369384 C6.65988372,2.23993344 6.70203488,1.85956739 6.80741279,1.54259567 C6.9127907,1.22562396 7.03924419,0.972046589 7.20784884,0.760732113 C7.37645349,0.549417637 7.5872093,0.401497504 7.84011628,0.316971714 C8.07194767,0.211314476 8.34593023,0.169051581 8.64098837,0.169051581 C8.93604651,0.169051581 9.21002907,0.211314476 9.44186047,0.316971714 C9.67369186,0.422628952 9.88444767,0.570549085 10.0741279,0.760732113 C10.2427326,0.972046589 10.3902616,1.22562396 10.474564,1.54259567 C10.5799419,1.85956739 10.622093,2.23993344 10.622093,2.68369384 L10.622093,3.69800333 Z M9.46293605,2.51464226 C9.46293605,2.26106489 9.44186047,2.02861897 9.3997093,1.85956739 C9.35755814,1.69051581 9.31540698,1.54259567 9.23110465,1.43693844 C9.16787791,1.3312812 9.08357558,1.24675541 8.97819767,1.20449251 C8.87281977,1.16222962 8.76744186,1.14109817 8.64098837,1.14109817 C8.51453488,1.14109817 8.3880814,1.16222962 8.30377907,1.20449251 C8.19840116,1.24675541 8.11409884,1.3312812 8.05087209,1.43693844 C7.98764535,1.54259567 7.9244186,1.69051581 7.88226744,1.85956739 C7.84011628,2.02861897 7.8190407,2.26106489 7.8190407,2.51464226 L7.8190407,3.84592346 C7.8190407,4.09950083 7.84011628,4.33194676 7.88226744,4.50099834 C7.9244186,4.69118136 7.96656977,4.81797005 8.05087209,4.94475874 C8.11409884,5.05041597 8.19840116,5.13494176 8.30377907,5.17720466 C8.40915698,5.21946755 8.51453488,5.240599 8.64098837,5.240599 C8.76744186,5.240599 8.89389535,5.21946755 8.97819767,5.17720466 C9.08357558,5.13494176 9.16787791,5.05041597 9.23110465,4.94475874 C9.2943314,4.8391015 9.35755814,4.69118136 9.37863372,4.50099834 C9.42078488,4.31081531 9.44186047,4.09950083 9.44186047,3.84592346 L9.44186047,2.51464226 L9.46293605,2.51464226 Z"></path>
                                        <polygon points="16.2703488 6.1281198 15.1111919 6.1281198 15.1111919 1.64825291 13.7202035 2.07088186 13.7202035 1.11996672 16.1438953 0.253577371 16.2703488 0.253577371"></polygon>
                                        <path d="M24.1526163,3.69800333 C24.1526163,4.14176373 24.1104651,4.52212978 24.0050872,4.8391015 C23.8997093,5.15607321 23.7732558,5.40965058 23.6046512,5.62096506 C23.4360465,5.83227953 23.2252907,5.98019967 22.9723837,6.06472546 C22.7194767,6.1703827 22.4665698,6.21264559 22.1715116,6.21264559 C21.8764535,6.21264559 21.6024709,6.1703827 21.3706395,6.06472546 C21.1388081,5.95906822 20.9280523,5.81114809 20.7383721,5.62096506 C20.5697674,5.40965058 20.4222384,5.15607321 20.337936,4.8391015 C20.2325581,4.52212978 20.190407,4.14176373 20.190407,3.69800333 L20.190407,2.68369384 C20.190407,2.23993344 20.2325581,1.85956739 20.337936,1.54259567 C20.443314,1.22562396 20.5697674,0.972046589 20.7383721,0.760732113 C20.9069767,0.549417637 21.1177326,0.401497504 21.3706395,0.316971714 C21.6024709,0.211314476 21.8764535,0.169051581 22.1715116,0.169051581 C22.4665698,0.169051581 22.7405523,0.211314476 22.9723837,0.316971714 C23.2042151,0.422628952 23.4149709,0.570549085 23.6046512,0.760732113 C23.7732558,0.972046589 23.9207849,1.22562396 24.0050872,1.54259567 C24.1104651,1.85956739 24.1526163,2.23993344 24.1526163,2.68369384 L24.1526163,3.69800333 Z M22.9934593,2.51464226 C22.9934593,2.26106489 22.9723837,2.02861897 22.9302326,1.85956739 C22.8880814,1.69051581 22.8459302,1.54259567 22.7616279,1.43693844 C22.6984012,1.3312812 22.6140988,1.24675541 22.5087209,1.20449251 C22.403343,1.16222962 22.2979651,1.14109817 22.1715116,1.14109817 C22.0450581,1.14109817 21.9186047,1.16222962 21.8343023,1.20449251 C21.7289244,1.24675541 21.6446221,1.3312812 21.5813953,1.43693844 C21.5181686,1.54259567 21.4549419,1.69051581 21.4127907,1.85956739 C21.3706395,2.02861897 21.349564,2.26106489 21.349564,2.51464226 L21.349564,3.84592346 C21.349564,4.09950083 21.3706395,4.33194676 21.4127907,4.50099834 C21.4549419,4.69118136 21.497093,4.81797005 21.5813953,4.94475874 C21.6446221,5.05041597 21.7289244,5.13494176 21.8343023,5.17720466 C21.9396802,5.21946755 22.0450581,5.240599 22.1715116,5.240599 C22.2979651,5.240599 22.4244186,5.21946755 22.5087209,5.17720466 C22.6140988,5.13494176 22.6984012,5.05041597 22.7616279,4.94475874 C22.8248547,4.8391015 22.8880814,4.69118136 22.909157,4.50099834 C22.9513081,4.31081531 22.9723837,4.09950083 22.9723837,3.84592346 L22.9723837,2.51464226 L22.9934593,2.51464226 Z"></path>
                                        <polygon points="29.8219477 6.1281198 28.6627907 6.1281198 28.6627907 1.64825291 27.2718023 2.07088186 27.2718023 1.11996672 29.6954942 0.253577371 29.8219477 0.253577371"></polygon>
                                    </g>
                                    <g transform="translate(0.000000, 8.875208)">
                                        <polygon points="2.52906977 6.1281198 1.3794926 6.1281198 1.3794926 1.61602365 0 2.0416931 0 1.08393684 2.40366135 0.211314476 2.52906977 0.211314476"></polygon>
                                        <polygon points="16.0174419 6.1281198 14.8678647 6.1281198 14.8678647 1.61602365 13.4883721 2.0416931 13.4883721 1.08393684 15.8920334 0.211314476 16.0174419 0.211314476"></polygon>
                                        <path d="M24.0261628,3.57830772 C24.0261628,4.02827455 23.9835632,4.41396042 23.8770643,4.7353653 C23.7705653,5.05677018 23.6427666,5.31389409 23.4723683,5.52816402 C23.3019699,5.74243394 23.088972,5.89242288 22.8333746,5.97813085 C22.5990769,6.08526582 22.3221796,6.1281198 22.0239826,6.1281198 C21.7257855,6.1281198 21.4488882,6.08526582 21.2145905,5.97813085 C20.9802929,5.87099589 20.767295,5.72100695 20.5755969,5.52816402 C20.4051985,5.31389409 20.2561,5.05677018 20.1709009,4.7353653 C20.0644019,4.41396042 20.0218023,4.02827455 20.0218023,3.57830772 L20.0218023,2.54981208 C20.0218023,2.09984525 20.0644019,1.71415938 20.1709009,1.3927545 C20.2773998,1.07134962 20.4051985,0.814225708 20.5755969,0.599955785 C20.7459952,0.385685862 20.9589931,0.235696915 21.2145905,0.149988946 C21.4488882,0.0428539846 21.7257855,0 22.0239826,0 C22.3221796,0 22.5990769,0.0428539846 22.8333746,0.149988946 C23.0676723,0.257123908 23.2806702,0.407112854 23.4723683,0.599955785 C23.6427666,0.814225708 23.7918651,1.07134962 23.8770643,1.3927545 C23.9835632,1.71415938 24.0261628,2.09984525 24.0261628,2.54981208 L24.0261628,3.57830772 Z M22.8546744,2.37839615 C22.8546744,2.12127224 22.8333746,1.88557532 22.790775,1.71415938 C22.7481754,1.54274345 22.7055758,1.3927545 22.6203767,1.28561954 C22.5351775,1.17848458 22.4712781,1.09277661 22.3647792,1.04992262 C22.2582802,1.00706864 22.1517813,0.985641646 22.0239826,0.985641646 C21.8961838,0.985641646 21.7683851,1.00706864 21.6831859,1.04992262 C21.576687,1.09277661 21.4914878,1.17848458 21.4275884,1.28561954 C21.3636891,1.3927545 21.2997897,1.54274345 21.2571901,1.71415938 C21.2145905,1.88557532 21.1932908,2.12127224 21.1932908,2.37839615 L21.1932908,3.72829666 C21.1932908,3.98542057 21.2145905,4.22111748 21.2571901,4.39253342 C21.2997897,4.58537635 21.3423893,4.71393831 21.4275884,4.84250026 C21.4914878,4.94963522 21.576687,5.03534319 21.6831859,5.07819718 C21.7896849,5.12105116 21.8961838,5.14247815 22.0239826,5.14247815 C22.1517813,5.14247815 22.27958,5.12105116 22.3647792,5.07819718 C22.4712781,5.03534319 22.5564773,4.94963522 22.6203767,4.84250026 C22.684276,4.7353653 22.7481754,4.58537635 22.7694752,4.39253342 C22.8120748,4.19969049 22.8333746,3.98542057 22.8333746,3.72829666 L22.8333746,2.37839615 L22.8546744,2.37839615 Z"></path>
                                        <polygon points="29.505814 6.1281198 28.3562368 6.1281198 28.3562368 1.61602365 26.9767442 2.0416931 26.9767442 1.08393684 29.3804055 0.211314476 29.505814 0.211314476"></polygon>
                                        <polygon points="35.8284884 6.1281198 34.6789112 6.1281198 34.6789112 1.61602365 33.2994186 2.0416931 33.2994186 1.08393684 35.70308 0.211314476 35.8284884 0.211314476"></polygon>
                                    </g>
                                </g>
                                <g transform="translate(8.008721, 9.509151)" fill="#FFFFFF" id="Shape">
                                    <path d="M23.7311047,27.1116473 L14.5632267,17.9194676 L17.9142442,14.5595674 L27.0821221,23.7517471 C28.0094477,24.6815308 28.0094477,26.1818636 27.0821221,27.1116473 C26.1547965,28.0414309 24.6584302,28.0414309 23.7311047,27.1116473 Z"></path>
                                    <path d="M17.5981105,3.08519135 C13.59375,-0.929783694 7.10247093,-0.929783694 3.11918605,3.08519135 C-0.885174419,7.10016639 -0.885174419,13.6086522 3.11918605,17.6024958 C7.12354651,21.6174709 13.6148256,21.6174709 17.5981105,17.6024958 C21.6024709,13.5875208 21.6024709,7.07903494 17.5981105,3.08519135 Z M15.0901163,15.0667221 C12.4767442,17.6870216 8.26162791,17.6870216 5.64825581,15.0667221 C3.03488372,12.4464226 3.03488372,8.22013311 5.64825581,5.59983361 C8.26162791,2.97953411 12.4767442,2.97953411 15.0901163,5.59983361 C17.6824128,8.22013311 17.6824128,12.4675541 15.0901163,15.0667221 Z"></path>
                                </g>
                            </g>
                            <path d="M34.3531977,45.7707155 C33.8895349,45.7707155 33.4258721,45.6016639 33.0675872,45.2424293 C32.3510174,44.5239601 32.3510174,43.3828619 33.0675872,42.6643927 L38.9476744,36.7687188 L33.0675872,30.8519135 C32.3510174,30.1334443 32.3510174,28.9923461 33.0675872,28.2738769 C33.784157,27.5554077 34.9222384,27.5554077 35.6388081,28.2738769 L42.8045058,35.4585691 C43.1417151,35.7966722 43.3313953,36.2615641 43.3313953,36.7475874 C43.3313953,37.2336106 43.1417151,37.6985025 42.8045058,38.0366057 L35.6388081,45.2212978 C35.2805233,45.5805324 34.8168605,45.7707155 34.3531977,45.7707155 Z" id="Shape" fill="#FFFFFF"></path>
                            <path d="M111.384448,45.7707155 C111.84811,45.7707155 112.311773,45.6016639 112.670058,45.2424293 C113.386628,44.5239601 113.386628,43.3828619 112.670058,42.6643927 L106.789971,36.7687188 L112.670058,30.8730449 C113.386628,30.1545757 113.386628,29.0134775 112.670058,28.2950083 C111.953488,27.5765391 110.815407,27.5765391 110.098837,28.2950083 L102.93314,35.4797005 C102.59593,35.8178037 102.40625,36.2826955 102.40625,36.7687188 C102.40625,37.2547421 102.59593,37.7196339 102.93314,38.0577371 L110.098837,45.2424293 C110.436047,45.5805324 110.920785,45.7707155 111.384448,45.7707155 Z" id="Shape" fill="#FFFFFF"></path>
                            <g transform="translate(99.687500, 81.356073)">
                                <ellipse id="Oval" stroke="#FFFFFF" stroke-width="2" cx="22.6351744" cy="22.8853577" rx="22.6351744" ry="22.6951747"></ellipse>
                                <path d="M25.7965116,27.9569052 C25.7965116,27.5131448 25.7332849,27.1327787 25.627907,26.815807 C25.5225291,26.4777038 25.3328488,26.1818636 25.0799419,25.9282862 C24.8270349,25.6535774 24.4898256,25.4211314 24.0893895,25.1886855 C23.6889535,24.9562396 23.1831395,24.7449251 22.5930233,24.5336106 C21.5813953,24.1532446 20.6751453,23.7517471 19.8531977,23.3291181 C19.03125,22.9064892 18.3357558,22.4204659 17.7456395,21.8921797 C17.1555233,21.3427621 16.712936,20.7088186 16.3757267,19.969218 C16.059593,19.2296173 15.8909884,18.363228 15.8909884,17.3489185 C15.8909884,16.4825291 16.0385174,15.6795341 16.3335756,14.9399334 C16.6286337,14.2214642 17.0290698,13.5875208 17.5770349,13.0592346 C18.1039244,12.5309484 18.7572674,12.087188 19.4949128,11.7490849 C20.2325581,11.4109817 21.0755814,11.1996672 22.002907,11.1151414 L22.002907,7.79750416 L24.46875,7.79750416 L24.46875,11.1574043 C25.3539244,11.284193 26.1547965,11.5377704 26.8713663,11.9181364 C27.587936,12.2985025 28.1991279,12.8056572 28.7049419,13.3973378 C29.2107558,14.0101498 29.5901163,14.728619 29.8640988,15.5527454 C30.1380814,16.3768719 30.2645349,17.3066556 30.2645349,18.3420965 L25.7965116,18.3420965 C25.7965116,17.0953411 25.5436047,16.1866889 25.0377907,15.5738769 C24.5319767,14.9610649 23.8364826,14.6440932 22.9934593,14.6440932 C22.5297965,14.6440932 22.1293605,14.7074875 21.7921512,14.8554077 C21.4549419,15.0033278 21.1809593,15.1935108 20.9702035,15.4259567 C20.7594477,15.6584027 20.590843,15.9542429 20.4854651,16.2923461 C20.3800872,16.6304493 20.337936,16.9685524 20.337936,17.3700499 C20.337936,17.750416 20.3800872,18.0885191 20.4854651,18.4054908 C20.590843,18.7224626 20.7594477,18.9971714 21.0123547,19.2718802 C21.2652616,19.5254576 21.6024709,19.7790349 22.0239826,20.0114809 C22.4454942,20.2439268 22.9513081,20.4763727 23.5835756,20.7299501 C24.5741279,21.1314476 25.4803779,21.5540765 26.3023256,21.9767055 C27.1242733,22.3993344 27.8197674,22.8853577 28.4098837,23.4347754 C29,23.984193 29.4425872,24.6392679 29.7797965,25.3577371 C30.0959302,26.0973378 30.2645349,26.9637271 30.2645349,27.9569052 C30.2645349,28.8655574 30.1170058,29.6896839 29.8219477,30.4081531 C29.5268895,31.1266223 29.1053779,31.7605657 28.5784884,32.2888519 C28.0515988,32.8171381 27.3982558,33.2397671 26.6395349,33.5567388 C25.880814,33.8737105 25.0377907,34.085025 24.1104651,34.1695507 L24.1104651,37.2547421 L21.6656977,37.2547421 L21.6656977,34.1906822 C20.8015988,34.1061564 19.9796512,33.8948419 19.1787791,33.5778702 C18.377907,33.2608985 17.6824128,32.8171381 17.0501453,32.246589 C16.4389535,31.6549085 15.9331395,30.9364393 15.5748547,30.0489185 C15.1954942,29.1613977 15.0268895,28.1048253 15.0268895,26.8580699 L19.4949128,26.8580699 C19.4949128,27.5976705 19.6002907,28.2104825 19.7899709,28.6965058 C19.9796512,29.1825291 20.2325581,29.5840266 20.5486919,29.8798669 C20.8648256,30.1757072 21.2231105,30.3870216 21.6446221,30.4926789 C22.0450581,30.6194676 22.4665698,30.6617304 22.8880814,30.6617304 C23.3728198,30.6617304 23.7943314,30.5983361 24.1526163,30.450416 C24.5109012,30.3236273 24.8270349,30.1334443 25.0799419,29.9009983 C25.3328488,29.6685524 25.5225291,29.3727121 25.627907,29.0557404 C25.7332849,28.6965058 25.7965116,28.3584027 25.7965116,27.9569052 Z" id="Shape" fill="#FFFFFF"></path>
                            </g>
                        </g>
                    </g>
                </g>
            </g>
        </g>
    </g>
</svg>