<?xml version="1.0" encoding="UTF-8"?>
<svg width="308px" height="300px" viewBox="0 0 308 300" version="1.1" xmlns="http://www.w3.org/2000/svg" xmlns:xlink="http://www.w3.org/1999/xlink">
    <!-- Generator: Sketch 51.3 (57544) - http://www.bohemiancoding.com/sketch -->
    <title>Q</title>
    <desc>Created with Sketch.</desc>
    <defs></defs>
    <g id="Page-1" stroke="none" stroke-width="1" fill="none" fill-rule="evenodd" opacity="0.25">
        <g id="Mobile-Menu-Ex-1.1" transform="translate(0.000000, -400.000000)" fill="#FFFFFF">
            <g id="Bg" transform="translate(-54.000000, 0.000000)">
                <g id="logo-blue" transform="translate(0.000000, 397.000000)">
                    <path d="M184.934131,245.464715 C176.403631,248.112007 167.374006,249.507715 157.988944,249.507715 C154.222819,249.507715 150.502069,249.272568 146.856944,248.802276 L146.856944,310.478885 L361.533631,310.478885 L361.533631,245.464715 L184.934131,245.464715 Z" id="Fill-13"></path>
                    <path d="M157.988944,249.509232 C154.222819,249.509232 150.502069,249.274085 146.856944,248.803793 C101.300444,243.327159 66.0213813,204.399061 66.0213813,157.225671 C66.0213813,106.282354 107.199194,64.987622 157.988944,64.987622 C208.778694,64.987622 249.948944,106.282354 249.948944,157.225671 C249.948944,198.763134 222.580256,233.91372 184.934131,245.466232 C176.403631,248.105939 167.374006,249.509232 157.988944,249.509232 M157.988944,3.97093902 C73.5838813,3.97093902 5.18863125,72.5654024 5.18863125,157.225671 C5.18863125,238.116012 67.6548813,304.374183 146.856944,310.093549 C150.547444,310.366622 154.222819,310.480402 157.988944,310.480402 C209.633256,310.480402 255.303194,284.773598 282.944131,245.466232 C300.466444,220.54072 310.781694,190.085476 310.781694,157.225671 C310.781694,72.5654024 242.394006,3.97093902 157.988944,3.97093902" id="Fill-14"></path>
                </g>
            </g>
        </g>
    </g>
</svg>