<?xml version="1.0" encoding="UTF-8"?>
<svg width="509px" height="1097px" viewBox="0 0 509 1097" version="1.1" xmlns="http://www.w3.org/2000/svg" xmlns:xlink="http://www.w3.org/1999/xlink">
    <!-- Generator: Sketch 51.3 (57544) - http://www.bohemiancoding.com/sketch -->
    <title>Group 2</title>
    <desc>Created with Sketch.</desc>
    <defs>
        <linearGradient x1="85.3553391%" y1="14.6446609%" x2="37.3588873%" y2="83.2556217%" id="linearGradient-1">
            <stop stop-color="#0DC1C2" offset="0%"></stop>
            <stop stop-color="#092056" offset="100%"></stop>
        </linearGradient>
        <path d="M1614.57667,207.008321 L2421.26021,1013.69187 C2458.60464,1051.03629 2458.60464,1111.58357 2421.26021,1148.928 L1686.928,1883.26021 C1649.58357,1920.60464 1589.03629,1920.60464 1551.69187,1883.26021 L745.008321,1076.57667 C707.663893,1039.23224 707.663893,978.684961 745.008321,941.340533 L1479.34053,207.008321 C1516.68496,169.663893 1577.23224,169.663893 1614.57667,207.008321 Z" id="path-2"></path>
    </defs>
    <g id="Page-1" stroke="none" stroke-width="1" fill="none" fill-rule="evenodd">
        <g id="Green-+-Gra-Purple" transform="translate(0.000000, -1044.000000)">
            <g id="API-Left-Tri" transform="translate(-1941.000000, 511.000000)">
                <g id="Group-2">
                    <mask id="mask-3" fill="white">
                        <use xlink:href="#path-2"></use>
                    </mask>
                    <use id="Mask" fill="url(#linearGradient-1)" xlink:href="#path-2"></use>
                    <path d="M1844.874,528.008321 L2494.68363,1177.81795 C2532.02806,1215.16238 2532.02806,1275.70966 2494.68363,1313.05408 L1905.05408,1902.68363 C1867.70966,1940.02806 1807.16238,1940.02806 1769.81795,1902.68363 L1120.00832,1252.874 C1082.66389,1215.52958 1082.66389,1154.9823 1120.00832,1117.63787 L1709.63787,528.008321 C1746.9823,490.663893 1807.52958,490.663893 1844.874,528.008321 Z" id="Rectangle" fill="#0DC1C2" opacity="0.100000001" style="mix-blend-mode: screen;" mask="url(#mask-3)"></path>
                    <path d="M1870.874,5.0083206 L2520.68363,654.817949 C2558.02806,692.162376 2558.02806,752.709656 2520.68363,790.054084 L1931.05408,1379.68363 C1893.70966,1417.02806 1833.16238,1417.02806 1795.81795,1379.68363 L1146.00832,729.874004 C1108.66389,692.529576 1108.66389,631.982296 1146.00832,594.637869 L1735.63787,5.0083206 C1772.9823,-32.3361069 1833.52958,-32.3361069 1870.874,5.0083206 Z" id="Rectangle" fill="#0DC1C2" opacity="0.100000001" style="mix-blend-mode: screen;" mask="url(#mask-3)"></path>
                </g>
            </g>
        </g>
    </g>
</svg>