<?xml version="1.0" encoding="UTF-8"?>
<svg width="78px" height="121px" viewBox="0 0 78 121" version="1.1" xmlns="http://www.w3.org/2000/svg" xmlns:xlink="http://www.w3.org/1999/xlink">
    <!-- Generator: Sketch 51.3 (57544) - http://www.bohemiancoding.com/sketch -->
    <title>Icon</title>
    <desc>Created with Sketch.</desc>
    <defs></defs>
    <g id="Page-1" stroke="none" stroke-width="1" fill="none" fill-rule="evenodd">
        <g id="Web-Main" transform="translate(-277.000000, -1995.000000)" fill-rule="nonzero">
            <g id="Features-First-Part" transform="translate(52.000000, 1629.000000)">
                <g id="Feature-1" transform="translate(0.000000, 332.000000)">
                    <g id="Icon" transform="translate(226.000000, 35.000000)">
                        <g id="Group">
                            <path d="M69.3094599,116.078431 L6.66786034,116.078431 C2.99373321,116.078431 0,113.0874 0,109.365736 L0,49.0656368 C0,45.3668045 2.97105342,42.3529412 6.66786034,42.3529412 L69.3321397,42.3529412 C73.0062668,42.3529412 76,45.3439722 76,49.0656368 L76,109.365736 C75.9773202,113.0874 73.0062668,116.078431 69.3094599,116.078431 Z" id="Shape" stroke="#FFFFFF" stroke-width="2"></path>
                            <rect id="Rectangle-path" fill="#FFFFFF" x="0" y="52.5490196" width="76" height="7.84313725"></rect>
                            <path d="M67.3814433,42.3529412 L58.1540253,42.3529412 L58.1540253,29.7014737 C58.1540253,18.4103791 48.949335,9.20518957 37.6082474,9.20518957 C26.2671598,9.20518957 17.0624695,18.3877063 17.0624695,29.7014737 L17.0624695,42.3529412 L7.83505155,42.3529412 L7.83505155,29.7014737 C7.83505155,13.3316539 21.1988982,0 37.6082474,0 C54.0175966,0 67.3814433,13.3316539 67.3814433,29.7014737 L67.3814433,42.3529412 Z" id="Shape" stroke="#FFFFFF" stroke-width="2"></path>
                            <path d="M52.2253595,90.8257576 C52.0457023,90.1212121 51.7537593,89.4621212 51.3495305,88.8712121 C50.9453017,88.280303 50.4287872,87.7575758 49.7999869,87.3030303 C49.1711866,86.8484848 48.4301005,86.5075758 47.5318143,86.280303 C48.2729004,85.9848485 48.9241579,85.6212121 49.4406724,85.1666667 C49.9796441,84.7121212 50.4287872,84.2121212 50.7656445,83.6439394 C51.124959,83.0984848 51.3719877,82.4848485 51.5516449,81.8484848 C51.7313021,81.2121212 51.7986736,80.530303 51.7986736,79.8484848 C51.7986736,78.4393939 51.5516449,77.1893939 51.0351303,76.1439394 C50.541073,75.0984848 49.7999869,74.2348485 48.8567864,73.5530303 C47.8911288,72.8712121 46.7458139,72.3484848 45.3534704,72.0075758 C44.859413,71.8939394 44.3428984,71.8030303 43.8263839,71.7121212 L43.8263839,66.6666667 L38.8408957,66.6666667 L38.8408957,71.4848485 L36.3706087,71.4848485 L36.3706087,66.6666667 L31.3626633,66.6666667 L31.3626633,71.4848485 L30.9135203,71.4848485 L30.1948913,71.4848485 L24.2886598,71.4848485 L24.2886598,76.5530303 L28.5106048,76.5530303 C29.4313481,76.5530303 30.1724342,77.3030303 30.1724342,78.2348485 L30.1724342,95.1439394 C30.1724342,96.0757576 29.4313481,96.8257576 28.5106048,96.8257576 L24.2886598,96.8257576 L24.2886598,101.893939 L30.9135203,101.893939 L30.9135203,101.848485 L31.3626633,101.848485 L31.3626633,106.666667 L36.3706087,106.666667 L36.3706087,101.848485 L38.8408957,101.848485 L38.8408957,106.666667 L43.848841,106.666667 L43.848841,101.734848 C46.2742137,101.484848 48.2279861,100.757576 49.6877011,99.5984848 C51.574102,98.0984848 52.4948454,95.8712121 52.4948454,92.9166667 C52.4948454,92.2348485 52.4050167,91.5075758 52.2253595,90.8257576 Z M45.6229562,80.4621212 C45.6229562,81.6666667 45.2411846,82.5757576 44.4776413,83.2348485 C43.7140981,83.8712121 42.5238689,84.2121212 40.9518681,84.2575758 L36.3706087,84.2575758 L36.3706087,76.5984848 L40.7048395,76.5984848 C42.4115832,76.5984848 43.6467266,76.8939394 44.4551842,77.5075758 C45.2411846,78.0984848 45.6229562,79.0984848 45.6229562,80.4621212 Z M46.027185,94.4848485 C45.8475277,94.9621212 45.5555847,95.3939394 45.1738131,95.7348485 C44.7920415,96.0984848 44.2979841,96.3712121 43.7365553,96.5757576 C43.1526692,96.780303 42.4789546,96.8712121 41.6704971,96.8712121 L36.3706087,96.8712121 L36.3706087,88.6666667 L41.8950686,88.6666667 C42.681069,88.6666667 43.3547836,88.7575758 43.9162125,88.9621212 C44.4776413,89.1666667 44.9267844,89.4393939 45.2860989,89.8030303 C45.6454134,90.1666667 45.8924421,90.6212121 46.0496421,91.1439394 C46.2068422,91.6666667 46.2966708,92.2575758 46.2966708,92.9166667 C46.319128,93.4848485 46.2068422,94.0075758 46.027185,94.4848485 Z" id="Shape" stroke="#FFFFFF" stroke-width="2"></path>
                            <path d="M61.3578231,120 L13.8586718,120 C12.6935982,120 11.7525773,119.058824 11.7525773,117.893557 L11.7525773,116.078431 L63.4639175,116.078431 L63.4639175,117.893557 C63.4639175,119.058824 62.5228966,120 61.3578231,120 Z" id="Shape" fill="#FFFFFF"></path>
                        </g>
                    </g>
                </g>
            </g>
        </g>
    </g>
</svg>